<svg width="60" height="60" viewBox="0 0 60 60" fill="none" xmlns="http://www.w3.org/2000/svg">
<g clip-path="url(#clip0_41_298)">
<path d="M58.2422 3.75H52.8516V1.75781C52.8516 0.787031 52.0645 0 51.0938 0C50.123 0 49.3359 0.787031 49.3359 1.75781V3.75H42.3047V1.75781C42.3047 0.787031 41.5177 0 40.5469 0C39.5761 0 38.7891 0.787031 38.7891 1.75781V3.75H31.7578V1.75781C31.7578 0.787031 30.9708 0 30 0C29.0292 0 28.2422 0.787031 28.2422 1.75781V3.75H21.2109V1.75781C21.2109 0.787031 20.4239 0 19.4531 0C18.4823 0 17.6953 0.787031 17.6953 1.75781V3.75H10.6641V1.75781C10.6641 0.787031 9.87703 0 8.90625 0C7.93547 0 7.14844 0.787031 7.14844 1.75781V3.75H1.75781C0.787031 3.75 0 4.53703 0 5.50781V58.2422C0 59.213 0.787031 60 1.75781 60H58.2422C59.213 60 60 59.213 60 58.2422V5.50781C60 4.53703 59.213 3.75 58.2422 3.75ZM7.14844 7.26562V9.02344C7.14844 9.99422 7.93547 10.7812 8.90625 10.7812C9.87703 10.7812 10.6641 9.99422 10.6641 9.02344V7.26562H17.6953V9.02344C17.6953 9.99422 18.4823 10.7812 19.4531 10.7812C20.4239 10.7812 21.2109 9.99422 21.2109 9.02344V7.26562H28.2422V9.02344C28.2422 9.99422 29.0292 10.7812 30 10.7812C30.9708 10.7812 31.7578 9.99422 31.7578 9.02344V7.26562H38.7891V9.02344C38.7891 9.99422 39.5761 10.7812 40.5469 10.7812C41.5177 10.7812 42.3047 9.99422 42.3047 9.02344V7.26562H49.3359V9.02344C49.3359 9.99422 50.123 10.7812 51.0938 10.7812C52.0645 10.7812 52.8516 9.99422 52.8516 9.02344V7.26562H56.4844V14.2969H3.51562V7.26562H7.14844ZM3.51562 56.4844V17.8125H56.4844V56.4844H3.51562Z" fill="#0A9642"/>
<path d="M19.4531 24.8438H12.4219C11.4511 24.8438 10.6641 25.6308 10.6641 26.6016V33.6328C10.6641 34.6036 11.4511 35.3906 12.4219 35.3906H19.4531C20.4239 35.3906 21.2109 34.6036 21.2109 33.6328V26.6016C21.2109 25.6308 20.4239 24.8438 19.4531 24.8438ZM17.6953 31.875H14.1797V28.3594H17.6953V31.875Z" fill="#0A9642"/>
<path d="M47.5781 24.8438H40.5469C39.5761 24.8438 38.7891 25.6308 38.7891 26.6016V33.6328C38.7891 34.6036 39.5761 35.3906 40.5469 35.3906H47.5781C48.5489 35.3906 49.3359 34.6036 49.3359 33.6328V26.6016C49.3359 25.6308 48.5489 24.8438 47.5781 24.8438ZM45.8203 31.875H42.3047V28.3594H45.8203V31.875Z" fill="#0A9642"/>
<path d="M33.5156 38.7891H26.4844C25.5136 38.7891 24.7266 39.5761 24.7266 40.5469V47.5781C24.7266 48.5489 25.5136 49.3359 26.4844 49.3359H33.5156C34.4864 49.3359 35.2734 48.5489 35.2734 47.5781V40.5469C35.2734 39.5761 34.4864 38.7891 33.5156 38.7891ZM31.7578 45.8203H28.2422V42.3047H31.7578V45.8203Z" fill="#0A9642"/>
<path d="M33.5156 24.8438H26.4844C25.5136 24.8438 24.7266 25.6308 24.7266 26.6016V33.6328C24.7266 34.6036 25.5136 35.3906 26.4844 35.3906H33.5156C34.4864 35.3906 35.2734 34.6036 35.2734 33.6328V26.6016C35.2734 25.6308 34.4864 24.8438 33.5156 24.8438ZM31.7578 31.875H28.2422V28.3594H31.7578V31.875Z" fill="#0A9642"/>
<path d="M47.5781 38.7891H40.5469C39.5761 38.7891 38.7891 39.5761 38.7891 40.5469V47.5781C38.7891 48.5489 39.5761 49.3359 40.5469 49.3359H47.5781C48.5489 49.3359 49.3359 48.5489 49.3359 47.5781V40.5469C49.3359 39.5761 48.5489 38.7891 47.5781 38.7891ZM45.8203 45.8203H42.3047V42.3047H45.8203V45.8203Z" fill="#0A9642"/>
<path d="M20.562 40.4486C19.8087 39.8362 18.7016 39.9505 18.0892 40.7036L14.5152 45.0996L13.5365 44.297C12.7858 43.6812 11.6783 43.791 11.0627 44.5416C10.4471 45.2923 10.5566 46.3998 11.3074 47.0154L13.6511 48.9373C14.4056 49.556 15.517 49.4406 16.1296 48.687L20.8171 42.9214C21.4295 42.1681 21.3153 41.061 20.562 40.4486Z" fill="#0A9642"/>
</g>
<defs>
<clipPath id="clip0_41_298">
<rect width="60" height="60" fill="white"/>
</clipPath>
</defs>
</svg>
