<svg width="50" height="50" viewBox="0 0 50 50" fill="none" xmlns="http://www.w3.org/2000/svg">
<g clip-path="url(#clip0_51_42)">
<path d="M49.2188 10.9375H44.5312V7.8125C44.5312 7.6053 44.4489 7.40659 44.3024 7.26007C44.1559 7.11356 43.9572 7.03125 43.75 7.03125H42.9688V3.90625C42.9688 3.69905 42.8864 3.50034 42.7399 3.35382C42.5934 3.20731 42.3947 3.125 42.1875 3.125H37.5C37.2928 3.125 37.0941 3.20731 36.9476 3.35382C36.8011 3.50034 36.7188 3.69905 36.7188 3.90625V7.03125H35.9375C35.7303 7.03125 35.5316 7.11356 35.3851 7.26007C35.2386 7.40659 35.1562 7.6053 35.1562 7.8125V10.9375H32.5142L31.1676 8.2443C31.1027 8.11453 31.0029 8.0054 30.8795 7.92914C30.7561 7.85287 30.6138 7.81248 30.4688 7.8125H19.5312C19.3862 7.81248 19.2439 7.85287 19.1205 7.92914C18.9971 8.0054 18.8973 8.11453 18.8324 8.2443L17.4858 10.9375H14.8438V7.8125C14.8438 7.6053 14.7614 7.40659 14.6149 7.26007C14.4684 7.11356 14.2697 7.03125 14.0625 7.03125H13.2812V3.90625C13.2812 3.69905 13.1989 3.50034 13.0524 3.35382C12.9059 3.20731 12.7072 3.125 12.5 3.125H7.8125C7.6053 3.125 7.40659 3.20731 7.26007 3.35382C7.11356 3.50034 7.03125 3.69905 7.03125 3.90625V7.03125H6.25C6.0428 7.03125 5.84409 7.11356 5.69757 7.26007C5.55106 7.40659 5.46875 7.6053 5.46875 7.8125V10.9375H0.78125C0.57405 10.9375 0.375336 11.0198 0.228823 11.1663C0.08231 11.3128 0 11.5115 0 11.7188L0 17.9688C0 18.176 0.08231 18.3747 0.228823 18.5212C0.375336 18.6677 0.57405 18.75 0.78125 18.75H3.125V46.0938C3.125 46.301 3.20731 46.4997 3.35382 46.6462C3.50034 46.7927 3.69905 46.875 3.90625 46.875H46.0938C46.301 46.875 46.4997 46.7927 46.6462 46.6462C46.7927 46.4997 46.875 46.301 46.875 46.0938V18.75H49.2188C49.426 18.75 49.6247 18.6677 49.7712 18.5212C49.9177 18.3747 50 18.176 50 17.9688V11.7188C50 11.5115 49.9177 11.3128 49.7712 11.1663C49.6247 11.0198 49.426 10.9375 49.2188 10.9375ZM38.2812 4.6875H41.4062V7.03125H38.2812V4.6875ZM36.7188 8.59375H42.9688V10.9375H36.7188V8.59375ZM20.0142 9.375H29.9858L30.767 10.9375H19.233L20.0142 9.375ZM8.59375 4.6875H11.7188V7.03125H8.59375V4.6875ZM7.03125 8.59375H13.2812V10.9375H7.03125V8.59375ZM45.3125 45.3125H4.6875V18.75H45.3125V45.3125ZM48.4375 17.1875H1.5625V12.5H48.4375V17.1875Z" fill="white"/>
<path d="M17.1874 34.3749H22.6561V40.6249C22.6561 40.7821 22.7034 40.9357 22.792 41.0656C22.8806 41.1955 23.0064 41.2956 23.1528 41.3529C23.2992 41.4102 23.4595 41.4219 23.6127 41.3867C23.7659 41.3514 23.9049 41.2707 24.0115 41.1552L33.3865 30.9989C33.4896 30.8873 33.558 30.7481 33.5832 30.5983C33.6084 30.4485 33.5894 30.2945 33.5284 30.1554C33.4675 30.0162 33.3673 29.8978 33.2402 29.8147C33.113 29.7316 32.9643 29.6873 32.8124 29.6874H27.3436V23.4374C27.3437 23.2802 27.2964 23.1266 27.2078 22.9967C27.1192 22.8669 26.9934 22.7667 26.847 22.7095C26.7006 22.6522 26.5403 22.6404 26.3871 22.6757C26.2339 22.711 26.0949 22.7916 25.9883 22.9072L16.6133 33.0634C16.5101 33.175 16.4418 33.3142 16.4166 33.4641C16.3914 33.6139 16.4104 33.7678 16.4713 33.907C16.5323 34.0462 16.6325 34.1645 16.7596 34.2477C16.8868 34.3308 17.0355 34.375 17.1874 34.3749ZM25.7811 25.4355V30.4687C25.7811 30.6759 25.8635 30.8746 26.01 31.0211C26.1565 31.1676 26.3552 31.2499 26.5624 31.2499H31.0279L24.2186 38.6268V33.5937C24.2186 33.3865 24.1363 33.1878 23.9898 33.0412C23.8433 32.8947 23.6446 32.8124 23.4374 32.8124H18.9719L25.7811 25.4355Z" fill="white"/>
<path d="M38.2812 23.4375H39.0625V24.2188C39.0625 24.426 39.1448 24.6247 39.2913 24.7712C39.4378 24.9177 39.6365 25 39.8438 25C40.051 25 40.2497 24.9177 40.3962 24.7712C40.5427 24.6247 40.625 24.426 40.625 24.2188V23.4375H41.4062C41.6135 23.4375 41.8122 23.3552 41.9587 23.2087C42.1052 23.0622 42.1875 22.8635 42.1875 22.6562C42.1875 22.449 42.1052 22.2503 41.9587 22.1038C41.8122 21.9573 41.6135 21.875 41.4062 21.875H40.625V21.0938C40.625 20.8865 40.5427 20.6878 40.3962 20.5413C40.2497 20.3948 40.051 20.3125 39.8438 20.3125C39.6365 20.3125 39.4378 20.3948 39.2913 20.5413C39.1448 20.6878 39.0625 20.8865 39.0625 21.0938V21.875H38.2812C38.074 21.875 37.8753 21.9573 37.7288 22.1038C37.5823 22.2503 37.5 22.449 37.5 22.6562C37.5 22.8635 37.5823 23.0622 37.7288 23.2087C37.8753 23.3552 38.074 23.4375 38.2812 23.4375Z" fill="white"/>
<path d="M8.59375 23.4375H11.7188C11.926 23.4375 12.1247 23.3552 12.2712 23.2087C12.4177 23.0622 12.5 22.8635 12.5 22.6562C12.5 22.449 12.4177 22.2503 12.2712 22.1038C12.1247 21.9573 11.926 21.875 11.7188 21.875H8.59375C8.38655 21.875 8.18784 21.9573 8.04132 22.1038C7.89481 22.2503 7.8125 22.449 7.8125 22.6562C7.8125 22.8635 7.89481 23.0622 8.04132 23.2087C8.18784 23.3552 8.38655 23.4375 8.59375 23.4375Z" fill="white"/>
</g>
<defs>
<clipPath id="clip0_51_42">
<rect width="50" height="50" fill="white"/>
</clipPath>
</defs>
</svg>
