<svg width="60" height="54" viewBox="0 0 60 54" fill="none" xmlns="http://www.w3.org/2000/svg">
<path d="M59.0625 10.125H53.4375V6.375C53.4375 6.12636 53.3387 5.8879 53.1629 5.71209C52.9871 5.53627 52.7486 5.4375 52.5 5.4375H51.5625V1.6875C51.5625 1.43886 51.4637 1.2004 51.2879 1.02459C51.1121 0.848772 50.8736 0.75 50.625 0.75H45C44.7514 0.75 44.5129 0.848772 44.3371 1.02459C44.1613 1.2004 44.0625 1.43886 44.0625 1.6875V5.4375H43.125C42.8764 5.4375 42.6379 5.53627 42.4621 5.71209C42.2863 5.8879 42.1875 6.12636 42.1875 6.375V10.125H39.0171L37.4011 6.89316C37.3232 6.73744 37.2035 6.60648 37.0554 6.51496C36.9073 6.42344 36.7366 6.37498 36.5625 6.375H23.4375C23.2634 6.37498 23.0927 6.42344 22.9446 6.51496C22.7965 6.60648 22.6768 6.73744 22.5989 6.89316L20.9829 10.125H17.8125V6.375C17.8125 6.12636 17.7137 5.8879 17.5379 5.71209C17.3621 5.53627 17.1236 5.4375 16.875 5.4375H15.9375V1.6875C15.9375 1.43886 15.8387 1.2004 15.6629 1.02459C15.4871 0.848772 15.2486 0.75 15 0.75H9.375C9.12636 0.75 8.8879 0.848772 8.71209 1.02459C8.53627 1.2004 8.4375 1.43886 8.4375 1.6875V5.4375H7.5C7.25136 5.4375 7.0129 5.53627 6.83709 5.71209C6.66127 5.8879 6.5625 6.12636 6.5625 6.375V10.125H0.9375C0.68886 10.125 0.450403 10.2238 0.274587 10.3996C0.0987721 10.5754 0 10.8139 0 11.0625L0 18.5625C0 18.8111 0.0987721 19.0496 0.274587 19.2254C0.450403 19.4012 0.68886 19.5 0.9375 19.5H3.75V52.3125C3.75 52.5611 3.84877 52.7996 4.02459 52.9754C4.2004 53.1512 4.43886 53.25 4.6875 53.25H55.3125C55.5611 53.25 55.7996 53.1512 55.9754 52.9754C56.1512 52.7996 56.25 52.5611 56.25 52.3125V19.5H59.0625C59.3111 19.5 59.5496 19.4012 59.7254 19.2254C59.9012 19.0496 60 18.8111 60 18.5625V11.0625C60 10.8139 59.9012 10.5754 59.7254 10.3996C59.5496 10.2238 59.3111 10.125 59.0625 10.125ZM45.9375 2.625H49.6875V5.4375H45.9375V2.625ZM44.0625 7.3125H51.5625V10.125H44.0625V7.3125ZM24.0171 8.25H35.9829L36.9204 10.125H23.0796L24.0171 8.25ZM10.3125 2.625H14.0625V5.4375H10.3125V2.625ZM8.4375 7.3125H15.9375V10.125H8.4375V7.3125ZM54.375 51.375H5.625V19.5H54.375V51.375ZM58.125 17.625H1.875V12H58.125V17.625Z" fill="#0A9642"/>
<path d="M20.625 38.25H27.1875V45.75C27.1874 45.9387 27.2442 46.123 27.3505 46.2788C27.4568 46.4347 27.6077 46.5548 27.7834 46.6236C27.9591 46.6923 28.1515 46.7064 28.3353 46.6641C28.5192 46.6218 28.686 46.5249 28.8139 46.3863L40.0639 34.1988C40.1877 34.0649 40.2697 33.8978 40.2999 33.718C40.3302 33.5382 40.3073 33.3535 40.2342 33.1865C40.1611 33.0195 40.0409 32.8775 39.8883 32.7777C39.7357 32.678 39.5573 32.6249 39.375 32.625H32.8125V25.125C32.8126 24.9363 32.7557 24.752 32.6494 24.5962C32.5431 24.4403 32.3922 24.3202 32.2165 24.2514C32.0408 24.1827 31.8485 24.1686 31.6646 24.2109C31.4808 24.2533 31.3139 24.3501 31.186 24.4887L19.936 36.6762C19.8123 36.8101 19.7303 36.9772 19.7 37.157C19.6698 37.3368 19.6926 37.5215 19.7657 37.6885C19.8388 37.8555 19.959 37.9976 20.1117 38.0973C20.2643 38.197 20.4427 38.2501 20.625 38.25ZM30.9375 27.5228V33.5625C30.9375 33.8111 31.0362 34.0496 31.2121 34.2254C31.3879 34.4012 31.6263 34.5 31.875 34.5H37.2335L29.0625 43.3523V37.3125C29.0625 37.0639 28.9637 36.8254 28.7879 36.6496C28.6121 36.4738 28.3736 36.375 28.125 36.375H22.7664L30.9375 27.5228Z" fill="#0A9642"/>
<path d="M45.9375 25.125H46.875V26.0625C46.875 26.3111 46.9738 26.5496 47.1496 26.7254C47.3254 26.9012 47.5639 27 47.8125 27C48.0611 27 48.2996 26.9012 48.4754 26.7254C48.6512 26.5496 48.75 26.3111 48.75 26.0625V25.125H49.6875C49.9361 25.125 50.1746 25.0262 50.3504 24.8504C50.5262 24.6746 50.625 24.4361 50.625 24.1875C50.625 23.9389 50.5262 23.7004 50.3504 23.5246C50.1746 23.3488 49.9361 23.25 49.6875 23.25H48.75V22.3125C48.75 22.0639 48.6512 21.8254 48.4754 21.6496C48.2996 21.4738 48.0611 21.375 47.8125 21.375C47.5639 21.375 47.3254 21.4738 47.1496 21.6496C46.9738 21.8254 46.875 22.0639 46.875 22.3125V23.25H45.9375C45.6889 23.25 45.4504 23.3488 45.2746 23.5246C45.0988 23.7004 45 23.9389 45 24.1875C45 24.4361 45.0988 24.6746 45.2746 24.8504C45.4504 25.0262 45.6889 25.125 45.9375 25.125Z" fill="#0A9642"/>
<path d="M10.3125 25.125H14.0625C14.3111 25.125 14.5496 25.0262 14.7254 24.8504C14.9012 24.6746 15 24.4361 15 24.1875C15 23.9389 14.9012 23.7004 14.7254 23.5246C14.5496 23.3488 14.3111 23.25 14.0625 23.25H10.3125C10.0639 23.25 9.8254 23.3488 9.64959 23.5246C9.47377 23.7004 9.375 23.9389 9.375 24.1875C9.375 24.4361 9.47377 24.6746 9.64959 24.8504C9.8254 25.0262 10.0639 25.125 10.3125 25.125Z" fill="#0A9642"/>
</svg>
