<svg width="60" height="60" viewBox="0 0 60 60" fill="none" xmlns="http://www.w3.org/2000/svg">
<g clip-path="url(#clip0_43_455)">
<path d="M56.129 17.4189C58.2639 17.4189 60 15.6828 60 13.5479V11.6124C60 9.47752 58.2639 7.74145 56.129 7.74145H48.3871V5.80596C49.4545 5.80596 50.3226 4.93793 50.3226 3.87048V1.935C50.3226 0.86755 49.4545 -0.000488281 48.3871 -0.000488281H1.93548C0.868038 -0.000488281 0 0.86755 0 1.935V3.87048C0 4.93793 0.868038 5.80596 1.93548 5.80596V25.7113L0 23.8836V59.9995H38.2405L11.5992 34.8382H38.7097V51.2898C38.7097 52.8903 40.0124 54.1931 41.6129 54.1931H57.0968C58.6972 54.1931 60 52.8903 60 51.2898V26.1285C60 24.5281 58.6972 23.2253 57.0968 23.2253H48.3871V17.4189H56.129ZM52.2581 11.6124H30.9677V9.67693H52.2581V11.6124ZM29.0323 14.6432L25.9386 12.5802L29.0323 10.5171V14.6432ZM30.9677 13.5479H52.2581V15.4834H30.9677V13.5479ZM58.0645 11.6124V13.5479C58.0645 14.6153 57.1965 15.4834 56.129 15.4834H54.1936V9.67693H56.129C57.1965 9.67693 58.0645 10.545 58.0645 11.6124ZM1.93548 1.935H48.3871L48.388 3.87048H1.93548V1.935ZM1.93548 58.064V56.1285H3.87097V54.1931H1.93548V52.2576H3.87097V50.3221H1.93548V48.3866H3.87097V46.4511H1.93548V44.5156H3.87097V42.5802H1.93548V40.6447H3.87097V38.7092H1.93548V36.7737H3.87097V34.8382H1.93548V28.3735L33.3725 58.064H1.93548ZM58.0645 26.1285V51.2898C58.0645 51.8238 57.6298 52.2576 57.0968 52.2576H41.6129C41.0799 52.2576 40.6452 51.8238 40.6452 51.2898V26.1285C40.6452 25.5946 41.0799 25.1608 41.6129 25.1608H57.0968C57.6298 25.1608 58.0645 25.5946 58.0645 26.1285ZM46.4516 23.2253H30V25.1608H38.8878C38.7791 25.4646 38.7097 25.7879 38.7097 26.1285V27.0963H30V29.0318H38.7097V32.9027H9.54984L3.87097 27.5395V5.80596H46.4516V7.74145H29.7066L22.4485 12.5802L29.7066 17.4189H46.4516V23.2253Z" fill="#0A9642"/>
<path d="M20.3225 11.6123H13.6693L11.9205 24.7222L9.17412 21.2897H5.8064V23.2252H8.24513L13.2407 29.4702L15.3628 13.5478H20.3225V11.6123Z" fill="#0A9642"/>
<path d="M26.4125 16.7349L22.258 20.8893L18.1036 16.7349L16.7351 18.1033L20.8896 22.2578L16.7351 26.4123L18.1036 27.7807L22.258 23.6262L26.4125 27.7807L27.781 26.4123L23.6265 22.2578L27.781 18.1033L26.4125 16.7349Z" fill="#0A9642"/>
<path d="M30 19.3545H44.5161V21.29H30V19.3545Z" fill="#0A9642"/>
<path d="M5.8064 37.3545V54.1931H23.635L5.8064 37.3545ZM7.74188 41.8449L18.7674 52.2576H7.74188V41.8449Z" fill="#0A9642"/>
<path d="M56.129 27.0962H42.5806V34.8381H56.129V27.0962ZM54.1935 32.9026H44.5161V29.0317H54.1935V32.9026Z" fill="#0A9642"/>
<path d="M50.3225 38.709H56.129V40.6445H50.3225V38.709Z" fill="#0A9642"/>
<path d="M42.5806 44.5156H48.387V46.4511H42.5806V44.5156Z" fill="#0A9642"/>
<path d="M42.5806 48.3867H48.387V50.3222H42.5806V48.3867Z" fill="#0A9642"/>
<path d="M44.5161 42.5804H46.4515V40.6449H48.387V38.7094H46.4515V36.7739H44.5161V38.7094H42.5806V40.6449H44.5161V42.5804Z" fill="#0A9642"/>
<path d="M54.4772 44.7993L53.2259 46.0506L51.9746 44.7993L50.6062 46.1678L51.8575 47.419L50.6062 48.6703L51.9746 50.0387L53.2259 48.7875L54.4772 50.0387L55.8456 48.6703L54.5944 47.419L55.8456 46.1678L54.4772 44.7993Z" fill="#0A9642"/>
</g>
<defs>
<clipPath id="clip0_43_455">
<rect width="60" height="60" fill="white" transform="translate(0 -0.000488281)"/>
</clipPath>
</defs>
</svg>
