<svg width="80" height="80" viewBox="0 0 80 80" fill="none" xmlns="http://www.w3.org/2000/svg">
<g clip-path="url(#clip0_39_33)">
<path d="M78.4344 73.7505H50.4679C49.6049 73.7505 48.9055 74.45 48.9055 75.3128C48.9055 76.1756 49.605 76.8752 50.4679 76.8752H78.4344C79.2974 76.8752 79.9968 76.1756 79.9968 75.3128C79.9968 74.45 79.2972 73.7505 78.4344 73.7505Z" fill="#0A9642"/>
<path d="M29.3758 73.7505H1.56552C0.702549 73.7505 0.00317383 74.45 0.00317383 75.3128C0.00317383 76.1756 0.702705 76.8752 1.56552 76.8752H29.3758C30.2388 76.8752 30.9382 76.1756 30.9382 75.3128C30.9382 74.45 30.2386 73.7505 29.3758 73.7505Z" fill="#0A9642"/>
<path d="M40.6177 31.9617H28.5096C27.6466 31.9617 26.9473 32.6612 26.9473 33.524C26.9473 34.387 27.6468 35.0864 28.5096 35.0864H40.6177C41.4807 35.0864 42.1801 34.3868 42.1801 33.524C42.1801 32.6612 41.4805 31.9617 40.6177 31.9617Z" fill="#0A9642"/>
<path d="M52.7787 32.4192C52.4881 32.1286 52.0849 31.9614 51.6742 31.9614C51.2617 31.9614 50.8585 32.1286 50.5696 32.4192C50.2774 32.7099 50.1118 33.113 50.1118 33.5238C50.1118 33.9347 50.2774 34.3378 50.5696 34.6283C50.8603 34.9189 51.2618 35.0861 51.6742 35.0861C52.0851 35.0861 52.4882 34.9189 52.7787 34.6283C53.0692 34.3377 53.2365 33.9346 53.2365 33.5238C53.2365 33.113 53.0693 32.7099 52.7787 32.4192Z" fill="#0A9642"/>
<path d="M47.321 32.4192C47.0288 32.1286 46.6273 31.9614 46.2149 31.9614C45.804 31.9614 45.4009 32.1286 45.1104 32.4192C44.8198 32.7099 44.6526 33.113 44.6526 33.5238C44.6526 33.9363 44.8198 34.3378 45.1104 34.6283C45.4026 34.9189 45.8041 35.0861 46.2149 35.0861C46.6257 35.0861 47.029 34.9189 47.321 34.6283C47.6117 34.3377 47.7773 33.9346 47.7773 33.5238C47.7773 33.113 47.6117 32.7099 47.321 32.4192Z" fill="#0A9642"/>
<path d="M40.6177 44.4607H28.5096C27.6466 44.4607 26.9473 45.1602 26.9473 46.023C26.9473 46.8858 27.6468 47.5854 28.5096 47.5854H40.6177C41.4807 47.5854 42.1801 46.8858 42.1801 46.023C42.1801 45.1602 41.4805 44.4607 40.6177 44.4607Z" fill="#0A9642"/>
<path d="M52.7787 44.9183C52.4881 44.6276 52.0849 44.4604 51.6742 44.4604C51.2617 44.4604 50.8601 44.6276 50.5696 44.9183C50.2774 45.2089 50.1118 45.612 50.1118 46.0228C50.1118 46.4353 50.2774 46.8369 50.5696 47.1273C50.8603 47.4179 51.2618 47.5851 51.6742 47.5851C52.0851 47.5851 52.4882 47.4179 52.7787 47.1273C53.0692 46.8367 53.2365 46.4336 53.2365 46.0228C53.2365 45.612 53.0693 45.2089 52.7787 44.9183Z" fill="#0A9642"/>
<path d="M47.321 44.9183C47.0288 44.6276 46.6273 44.4604 46.2149 44.4604C45.804 44.4604 45.4009 44.6276 45.1104 44.9183C44.8198 45.2089 44.6526 45.612 44.6526 46.0228C44.6526 46.4336 44.8198 46.8369 45.1104 47.1273C45.401 47.4179 45.8041 47.5851 46.2149 47.5851C46.6274 47.5851 47.029 47.4179 47.321 47.1273C47.6117 46.8367 47.7773 46.4336 47.7773 46.0228C47.7773 45.612 47.6117 45.2089 47.321 44.9183Z" fill="#0A9642"/>
<path d="M40.6177 56.96H28.5096C27.6466 56.96 26.9473 57.6595 26.9473 58.5223C26.9473 59.3851 27.6468 60.0846 28.5096 60.0846H40.6177C41.4807 60.0846 42.1801 59.3851 42.1801 58.5223C42.1801 57.6595 41.4805 56.96 40.6177 56.96Z" fill="#0A9642"/>
<path d="M52.7787 57.4173C52.4865 57.1267 52.0849 56.9595 51.6742 56.9595C51.2617 56.9595 50.8601 57.1267 50.5681 57.4173C50.2774 57.7079 50.1118 58.111 50.1118 58.5218C50.1118 58.9326 50.2774 59.3359 50.5681 59.6264C50.8603 59.917 51.2618 60.0842 51.6742 60.0842C52.0851 60.0842 52.4882 59.917 52.7787 59.6264C53.0692 59.3357 53.2365 58.9326 53.2365 58.5218C53.2365 58.111 53.0693 57.7079 52.7787 57.4173Z" fill="#0A9642"/>
<path d="M47.3195 57.4173C47.0288 57.1267 46.6273 56.9595 46.2149 56.9595C45.804 56.9595 45.4009 57.1267 45.1104 57.4173C44.8199 57.7079 44.6526 58.111 44.6526 58.5218C44.6526 58.9326 44.8198 59.3359 45.1104 59.6264C45.401 59.917 45.8041 60.0842 46.2149 60.0842C46.6274 60.0842 47.029 59.917 47.3195 59.6264C47.6116 59.3357 47.7773 58.9326 47.7773 58.5218C47.7773 58.111 47.6116 57.7079 47.3195 57.4173Z" fill="#0A9642"/>
<path d="M60.3309 46.2465C60.3309 43.6937 59.1001 41.4234 57.2007 39.997C59.0999 38.5705 60.3309 36.3002 60.3309 33.7474C60.3309 29.4399 56.8265 25.9355 52.519 25.9355H27.5209C23.2134 25.9355 19.709 29.4399 19.709 33.7474C19.709 36.3002 20.9398 38.5705 22.8391 39.997C20.9399 41.4234 19.709 43.6937 19.709 46.2465C19.709 48.7993 20.9398 51.0696 22.8391 52.496C20.9399 53.9224 19.709 56.1927 19.709 58.7455C19.709 63.053 23.2134 66.5574 27.5209 66.5574H38.4377V70.8945C36.6193 71.5395 35.313 73.276 35.313 75.3129C35.3129 77.8974 37.4155 80.0001 40.0001 80.0001C42.5846 80.0001 44.6873 77.8974 44.6873 75.3129C44.6873 73.2762 43.381 71.5395 41.5626 70.8945V66.5574H52.5191C56.8266 66.5574 60.331 63.053 60.331 58.7455C60.331 56.1927 59.1002 53.9224 57.2009 52.496C59.0999 51.0696 60.3309 48.7993 60.3309 46.2465ZM22.8335 33.7476C22.8335 31.163 24.9362 29.0604 27.5207 29.0604H52.5188C55.1034 29.0604 57.206 31.163 57.206 33.7476C57.206 36.3321 55.1034 38.4348 52.5188 38.4348H27.5207C24.9362 38.4346 22.8335 36.332 22.8335 33.7476ZM40.0001 76.8754C39.1385 76.8754 38.4377 76.1744 38.4377 75.313C38.4377 74.4515 39.1387 73.7507 40.0001 73.7507C40.8615 73.7507 41.5624 74.4516 41.5624 75.313C41.5624 76.1744 40.8616 76.8754 40.0001 76.8754ZM57.206 58.7455C57.206 61.3301 55.1034 63.4327 52.5188 63.4327H27.5207C24.9362 63.4327 22.8335 61.3301 22.8335 58.7455C22.8335 56.161 24.9362 54.0584 27.5207 54.0584H52.5188C55.1034 54.0585 57.206 56.1612 57.206 58.7455ZM52.5188 50.9337H27.5207C24.9362 50.9337 22.8335 48.831 22.8335 46.2465C22.8335 43.662 24.9362 41.5593 27.5207 41.5593H52.5188C55.1034 41.5593 57.206 43.662 57.206 46.2465C57.206 48.831 55.1034 50.9337 52.5188 50.9337Z" fill="#0A9642"/>
<path d="M76.6426 24.193C74.6364 21.2809 71.8965 19.0052 68.6881 17.5769C64.7557 7.03453 54.6656 0 43.3592 0C36.7803 0 30.4404 2.39172 25.5079 6.73438C20.9979 10.7048 17.9495 16.0403 16.8211 21.8867C16.5786 21.8758 16.3365 21.8703 16.0954 21.8703C7.22199 21.8703 0.00292969 29.0894 0.00292969 37.9628C0.00292969 41.8242 1.39137 45.5584 3.91246 48.4773C6.40699 51.3653 9.84699 53.2778 13.599 53.8627C13.6806 53.8753 13.7615 53.8816 13.8415 53.8816C14.5982 53.8816 15.2631 53.3306 15.3834 52.5597C15.5164 51.707 14.9328 50.9083 14.0803 50.7753C7.73387 49.7861 3.12762 44.3978 3.12762 37.963C3.12762 30.8125 8.94481 24.9952 16.0954 24.9952C16.6975 24.9952 17.3079 25.0378 17.9101 25.1222C18.322 25.1797 18.7392 25.0709 19.0701 24.82C19.4014 24.5691 19.6189 24.1966 19.6746 23.785C21.2721 12.0067 31.4543 3.12484 43.359 3.12484C53.5675 3.12484 62.6543 9.60766 65.9706 19.2564C66.1181 19.6858 66.4451 20.0295 66.8664 20.1986C72.9445 22.6375 76.872 28.4452 76.872 34.9942C76.872 42.5322 71.5212 49.0981 64.149 50.6067C63.3036 50.7797 62.7587 51.6053 62.9317 52.4506C63.1046 53.2961 63.93 53.8408 64.7756 53.668C73.5954 51.8633 79.9968 44.0098 79.9968 34.9942C79.9968 31.113 78.837 27.378 76.6426 24.193Z" fill="#0A9642"/>
</g>
<defs>
<clipPath id="clip0_39_33">
<rect width="80" height="80" fill="white"/>
</clipPath>
</defs>
</svg>
