<svg width="68" height="68" viewBox="0 0 68 68" fill="none" xmlns="http://www.w3.org/2000/svg">
<path d="M34 21.25C37.5158 21.25 40.375 18.3908 40.375 14.875C40.375 11.3592 37.5158 8.5 34 8.5C30.4842 8.5 27.625 11.3592 27.625 14.875C27.625 18.3908 30.4842 21.25 34 21.25ZM34 10.625C36.3439 10.625 38.25 12.5311 38.25 14.875C38.25 17.2189 36.3439 19.125 34 19.125C31.6561 19.125 29.75 17.2189 29.75 14.875C29.75 12.5311 31.6561 10.625 34 10.625Z" fill="#0A9642"/>
<path d="M61.3912 25.4999C58.7127 16.8809 51.9467 9.88757 43.4286 6.91363L44.2106 4.94907L41.0072 5.58976C38.9597 5.99776 36.8252 5.18388 35.5714 3.51257L34 1.41626L32.4286 3.51257C31.1748 5.18388 29.0413 5.99776 26.9928 5.58976L23.7894 4.94907L24.5714 6.91257C16.0289 9.88014 9.41056 16.6642 6.66612 25.3034C3.73468 26.6528 1.56187 29.4556 1.14218 32.7483C0.667246 36.4756 2.33006 40.0424 5.48143 42.0569C6.03287 42.4096 6.375 43.0875 6.375 43.8281V45.6874C6.375 47.8581 8.01762 49.6336 10.1214 49.8864C12.2102 53.0166 14.9366 55.7493 18.0625 57.8446V64.8124H5.3125V66.9374H62.6875V64.8124H47.8125V59.1344C52.2219 56.7066 55.9024 53.177 58.5161 48.8749H64.8125V46.7499H62.6875V44.6249H66.9375V25.4999H61.3912ZM64.8125 33.9999H60.5625V27.6249H64.8125V33.9999ZM54.1875 42.4999V36.1249H58.4375V42.4999H54.1875ZM47.8125 36.1249H52.0625V42.4999H47.8125V36.1249ZM47.8125 33.9999V27.6249H52.0625V33.9999H47.8125ZM54.1875 33.9999V27.6249H58.4375V33.9999H54.1875ZM26.9992 7.74557C29.6395 8.11745 32.3329 7.05176 34 4.95332C35.6671 7.05176 38.3616 8.11851 41.0019 7.74557C40.5609 10.4252 41.5916 13.1473 43.7399 14.8643C41.5937 16.5208 40.5099 19.194 40.8563 21.8439C38.2086 21.5506 35.6182 22.662 33.9989 24.7944C32.5518 22.9744 30.3344 21.931 28.0447 21.931C27.6962 21.931 27.3466 21.9544 26.9981 22.0043C27.4401 19.3194 26.4052 16.5919 24.2473 14.8749C26.4052 13.1579 27.4401 10.4305 26.9992 7.74557ZM6.62681 40.2666C4.1735 38.6994 2.88043 35.922 3.25125 33.0171C3.67518 29.6841 6.41112 26.9896 9.75375 26.6113C10.0491 26.5784 10.3424 26.5624 10.6335 26.5624C12.4663 26.5624 14.1971 27.218 15.5773 28.4516C17.1572 29.8615 18.0625 31.8845 18.0625 33.9999C18.0625 36.5393 16.7832 38.8779 14.6412 40.2549C13.5182 40.9763 12.8318 42.2024 12.7627 43.5624H11.6875V36.992C12.9211 36.5521 13.8125 35.3833 13.8125 33.9999C13.8125 32.2426 12.3824 30.8124 10.625 30.8124C8.86762 30.8124 7.4375 32.2426 7.4375 33.9999C7.4375 35.3833 8.32893 36.5521 9.5625 36.992V43.5624H8.48406C8.40543 42.1908 7.72862 40.971 6.62681 40.2666ZM9.5625 33.9999C9.5625 33.4145 10.0396 32.9374 10.625 32.9374C11.2104 32.9374 11.6875 33.4145 11.6875 33.9999C11.6875 34.5854 11.2104 35.0624 10.625 35.0624C10.0396 35.0624 9.5625 34.5854 9.5625 33.9999ZM8.5 45.6874H12.75C12.75 46.8594 11.7969 47.8124 10.625 47.8124C9.45306 47.8124 8.5 46.8594 8.5 45.6874ZM39.3125 47.8124V52.6787L35.0625 51.8287V64.8124H30.8125V49.7037L28.6875 50.1287V47.8124H39.3125ZM28.6875 52.2962V64.8124H20.1875V53.9962L28.6875 52.2962ZM37.1875 64.8124V54.4212L45.6875 56.1212V64.8124H37.1875ZM47.8125 56.6854V54.3787L41.4375 53.1037V45.6874H39.3125V43.5624H37.1875V45.6874H35.0625V41.4374H32.9375V45.6874H30.8125V43.5624H28.6875V45.6874H26.5625V50.5537L18.0625 52.2537V55.2383C15.9205 53.6254 14.008 51.6874 12.4397 49.5146C13.8741 48.8314 14.875 47.3789 14.875 45.6874V43.7834C14.875 43.0726 15.2256 42.4054 15.7909 42.042C18.5438 40.2729 20.1875 37.2661 20.1875 33.9999C20.1875 31.2799 19.023 28.68 16.9936 26.8674C14.9653 25.0548 12.2347 24.1899 9.51468 24.5001C9.39887 24.5129 9.28625 24.5373 9.1715 24.5543C11.9159 17.3208 17.6598 11.6609 24.9581 9.02482C24.9379 10.8693 23.9912 12.6288 22.3167 13.6329L20.2481 14.8749L22.3178 16.117C24.6266 17.5025 25.5776 20.3224 24.5756 22.8246L23.7894 24.8008L26.9928 24.1601C29.0413 23.7532 31.1748 24.566 32.4286 26.2373L34 28.3336L35.6702 26.1077C36.8921 24.4778 38.8992 23.6682 40.9126 23.9954L43.8982 24.4821L43.2607 22.7693C42.3449 20.3064 43.3149 17.5386 45.5664 16.1871L47.753 14.8749L45.6832 13.6329C44.0098 12.6288 43.0642 10.8704 43.0429 9.02695C50.5771 11.765 56.593 17.9116 59.1653 25.4999H45.6875V44.6249H49.9375V46.7499H47.8125V48.8749H56.0107C53.8698 52.0401 51.0754 54.6964 47.8125 56.6854ZM60.5625 46.7499H52.0625V44.6249H60.5625V46.7499ZM60.5625 42.4999V36.1249H64.8125V42.4999H60.5625Z" fill="#0A9642"/>
<path d="M64.8125 64.8125H66.9375V66.9375H64.8125V64.8125Z" fill="#0A9642"/>
<path d="M1.0625 64.8125H3.1875V66.9375H1.0625V64.8125Z" fill="#0A9642"/>
<path d="M39.3125 60.5625H43.5625V62.6875H39.3125V60.5625Z" fill="#0A9642"/>
<path d="M22.3125 56.3125H26.5625V58.4375H22.3125V56.3125Z" fill="#0A9642"/>
<path d="M22.3125 60.5625H26.5625V62.6875H22.3125V60.5625Z" fill="#0A9642"/>
<path d="M26.5625 30.8125H41.4375V32.9375H26.5625V30.8125Z" fill="#0A9642"/>
<path d="M39.3125 35.0625H41.4375V37.1875H39.3125V35.0625Z" fill="#0A9642"/>
<path d="M30.8125 35.0625H32.9375V37.1875H30.8125V35.0625Z" fill="#0A9642"/>
<path d="M26.5625 35.0625H28.6875V37.1875H26.5625V35.0625Z" fill="#0A9642"/>
<path d="M35.0625 35.0625H37.1875V37.1875H35.0625V35.0625Z" fill="#0A9642"/>
</svg>
