<svg width="50" height="50" viewBox="0 0 50 50" fill="none" xmlns="http://www.w3.org/2000/svg">
<path d="M2.92969 8.88672H8.88672V5.95703H0V14.7461H2.92969V8.88672Z" fill="white"/>
<path d="M41.1133 5.95703V8.88672H47.0703V14.7461H50V5.95703H41.1133Z" fill="white"/>
<path d="M47.0703 41.1133H41.1133V44.043H50V35.2539H47.0703V41.1133Z" fill="white"/>
<path d="M2.92969 35.2539H0V44.043H8.88672V41.1133H2.92969V35.2539Z" fill="white"/>
<path d="M25 5.95703C14.4997 5.95703 5.95703 14.4997 5.95703 25C5.95703 35.5003 14.4997 44.043 25 44.043C35.5003 44.043 44.043 35.5003 44.043 25C44.043 14.4997 35.5003 5.95703 25 5.95703ZM25 41.1133C16.1151 41.1133 8.88672 33.8849 8.88672 25C8.88672 16.1151 16.1151 8.88672 25 8.88672C33.8849 8.88672 41.1133 16.1151 41.1133 25C41.1133 33.8849 33.8849 41.1133 25 41.1133Z" fill="white"/>
<path d="M25 11.8164C17.7306 11.8164 11.8164 17.7306 11.8164 25C11.8164 32.2694 17.7306 38.1836 25 38.1836C32.2694 38.1836 38.1836 32.2694 38.1836 25C38.1836 17.7306 32.2694 11.8164 25 11.8164ZM25 14.7461C27.2999 14.7461 29.4252 15.5072 31.1376 16.7908L16.7908 31.1376C15.5072 29.4252 14.7461 27.2999 14.7461 25C14.7461 19.346 19.346 14.7461 25 14.7461ZM25 35.2539C22.7002 35.2539 20.5748 34.4928 18.8624 33.2092L33.2092 18.8623C34.4928 20.5748 35.2539 22.7001 35.2539 25C35.2539 30.654 30.654 35.2539 25 35.2539Z" fill="white"/>
</svg>
