<svg width="80" height="80" viewBox="0 0 80 80" fill="none" xmlns="http://www.w3.org/2000/svg">
<g clip-path="url(#clip0_39_96)">
<path d="M79.9854 51.9169C79.9778 51.7993 79.9544 51.6831 79.9161 51.5716C79.9014 51.5289 79.8908 51.4889 79.8721 51.4476C79.8073 51.3026 79.7169 51.1703 79.6054 51.057L58.2725 29.724C58.0238 29.4752 57.6869 29.3349 57.3352 29.3334H28.5757C29.0709 28.2916 29.3304 27.1536 29.3357 26.0001C29.3306 22.0818 26.4926 18.7419 22.6265 18.1042C22.6545 17.8482 22.6687 17.5911 22.6692 17.3336C22.6692 12.9153 19.0876 9.33374 14.6693 9.33374C10.2511 9.33374 6.66948 12.9153 6.66948 17.3336C6.66998 17.5911 6.68415 17.8482 6.71215 18.1042C2.37056 18.7947 -0.589049 22.8742 0.101438 27.2156C0.278435 28.3286 0.689761 29.3912 1.30825 30.3333C-0.503384 33.0831 -0.423219 36.6672 1.50958 39.3332C-0.702713 42.3875 -0.456218 46.5777 2.0989 49.3517L0.3936 51.057C0.143604 51.307 0.00294016 51.6459 0.00294016 51.9996V78.6658C0.00294016 79.4021 0.599929 79.9991 1.33625 79.9991H78.6681C79.4044 79.9991 80.0014 79.4021 80.0014 78.6658V51.9996C80.0014 51.9716 79.9868 51.9463 79.9854 51.9169ZM75.4455 50.6663H67.2457L62.2458 45.3331H70.1123L75.4455 50.6663ZM45.3288 38.6665H52.342L56.0912 42.6665H49.0793L45.3288 38.6665ZM45.4248 42.6665H36.5543L32.5543 38.6665H41.6755L45.4248 42.6665ZM58.5912 45.3331L63.5911 50.6663H56.5792L51.5793 45.3331H58.5912ZM67.4497 42.6665H59.7458L56.0019 38.6665H63.4564L67.4497 42.6665ZM56.7832 32L60.7831 35.9999H53.4953L49.746 32H56.7832ZM46.0914 32L49.842 35.9999H42.8288L39.0795 32H46.0914ZM35.4249 32L39.1755 35.9999H29.8877L25.8878 32H35.4249ZM3.9842 29.4667C3.14105 28.5082 2.67389 27.2766 2.66956 26.0001C2.66956 23.0546 5.05734 20.6669 8.00279 20.6669H8.01612C8.10279 20.6789 8.19079 20.6895 8.28278 20.6935C9.0181 20.7322 9.64559 20.1674 9.68426 19.4321C9.69259 19.2724 9.67226 19.1126 9.62409 18.9602C9.44343 18.4364 9.34626 17.8876 9.3361 17.3336C9.3361 14.3881 11.7239 12.0004 14.6693 12.0004C17.6148 12.0004 20.0026 14.3881 20.0026 17.3336C19.9932 17.8869 19.8969 18.4354 19.7172 18.9589C19.4952 19.661 19.8846 20.41 20.5867 20.632C20.7391 20.6802 20.8989 20.7005 21.0585 20.6922C21.1514 20.6897 21.244 20.6812 21.3359 20.6669C24.2813 20.6669 26.6691 23.0546 26.6691 26.0001C26.6668 27.2166 26.2428 28.3946 25.4691 29.3334H22.6692C22.5137 29.336 22.3599 29.3657 22.2145 29.4214C22.1985 29.428 22.1799 29.4214 22.1625 29.4347C22.1452 29.448 22.1159 29.468 22.0892 29.4814C21.9825 29.5337 21.8835 29.6 21.7945 29.6787C21.7745 29.696 21.7465 29.704 21.7265 29.724L16.0026 35.4479V21.3335C16.0026 20.5972 15.4057 20.0002 14.6693 20.0002C13.933 20.0002 13.336 20.5972 13.336 21.3335V28.7814L10.2787 25.7241C9.74909 25.2126 8.90494 25.2273 8.39345 25.7569C7.89446 26.2736 7.89446 27.0927 8.39345 27.6094L13.336 32.552V38.1132L12.0027 39.4465L10.2787 37.7239C9.74909 37.2124 8.90494 37.2271 8.39345 37.7567C7.89446 38.2734 7.89446 39.0925 8.39345 39.6092L10.1174 41.3331L3.97753 47.4664C3.13438 46.5084 2.66939 45.2759 2.66956 43.9998C2.66806 42.6021 3.21871 41.2603 4.20153 40.2665C4.70969 39.748 4.70969 38.9184 4.20153 38.3999C2.2439 36.4317 2.1489 33.2826 3.9842 31.2C4.41086 30.7012 4.41086 29.9657 3.9842 29.4667ZM28.0024 77.3325H17.3359V61.3328H28.0024V77.3325ZM42.6688 77.3325H30.669V59.9995C30.669 59.2631 30.072 58.6661 29.3357 58.6661H16.0026C15.2663 58.6661 14.6693 59.2631 14.6693 59.9995V77.3325H2.66956V52.5516L4.96285 50.2583L15.6106 39.6105L22.6692 32.552L42.6688 52.5516V77.3325ZM39.2209 45.3331H47.9247L52.9246 50.6663H44.5541L39.2209 45.3331ZM77.3348 77.3325H45.3354V53.3329H77.3348V77.3325Z" fill="#0A9642"/>
<path d="M65.3336 5.33398C60.1791 5.33398 56.0005 9.51257 56.0005 14.6671C56.0005 19.8217 60.1791 24.0003 65.3336 24.0003C70.4854 23.9936 74.6601 19.8189 74.6668 14.6671C74.6668 9.51257 70.4882 5.33398 65.3336 5.33398ZM65.3336 21.3337C61.6519 21.3337 58.6671 18.3489 58.6671 14.6671C58.6671 10.9854 61.6519 8.0006 65.3336 8.0006C69.0154 8.0006 72.0002 10.9854 72.0002 14.6671C71.9957 18.3472 69.0136 21.3294 65.3336 21.3337Z" fill="#0A9642"/>
<path d="M66.6669 0.000732422H64.0002V2.66735H66.6669V0.000732422Z" fill="#0A9642"/>
<path d="M66.6669 26.6667H64.0002V29.3334H66.6669V26.6667Z" fill="#0A9642"/>
<path d="M53.3339 13.3337H50.6672V16.0004H53.3339V13.3337Z" fill="#0A9642"/>
<path d="M80.0001 13.3337H77.3335V16.0004H80.0001V13.3337Z" fill="#0A9642"/>
<path d="M55.9053 3.35369L54.0198 5.23926L55.9053 7.12482L57.7909 5.23926L55.9053 3.35369Z" fill="#0A9642"/>
<path d="M74.7589 22.2097L72.8733 24.0952L74.7589 25.9808L76.6444 24.0952L74.7589 22.2097Z" fill="#0A9642"/>
<path d="M55.9044 22.2084L54.0188 24.094L55.9044 25.9796L57.7899 24.094L55.9044 22.2084Z" fill="#0A9642"/>
<path d="M74.7598 3.35491L72.8743 5.24048L74.7598 7.12604L76.6454 5.24048L74.7598 3.35491Z" fill="#0A9642"/>
</g>
<defs>
<clipPath id="clip0_39_96">
<rect width="80" height="80" fill="white"/>
</clipPath>
</defs>
</svg>
