<svg width="130" height="130" viewBox="0 0 130 130" fill="none" xmlns="http://www.w3.org/2000/svg">
<path d="M33.9969 125.076L31.4954 84.3425C30.9439 84.6577 30.3136 84.8547 29.6242 84.8547C28.9348 84.8547 28.3045 84.6577 27.753 84.3425L25.2515 125.076H33.9969Z" fill="#E2E2E2"/>
<g opacity="0.4">
<path d="M31.4955 84.3425C30.944 84.6577 30.3137 84.8547 29.6243 84.8547L29.6637 112.785C29.6637 115.227 31.3182 117.276 33.544 117.906L31.4955 84.3425Z" fill="white"/>
</g>
<path d="M29.6244 84.8349C31.7456 84.8349 33.4653 83.1153 33.4653 80.994C33.4653 78.8727 31.7456 77.1531 29.6244 77.1531C27.5031 77.1531 25.7834 78.8727 25.7834 80.994C25.7834 83.1153 27.5031 84.8349 29.6244 84.8349Z" fill="#4E6575"/>
<g opacity="0.15">
<path d="M29.6244 77.1531C29.329 77.1531 29.0532 77.1925 28.7774 77.2516C28.7183 77.5273 28.679 77.8031 28.679 78.0985C28.679 80.2258 30.3926 81.9394 32.5199 81.9394C32.8153 81.9394 33.0911 81.9 33.3668 81.841C33.4259 81.5652 33.4653 81.2894 33.4653 80.994C33.4653 78.8667 31.7517 77.1531 29.6244 77.1531Z" fill="#E2E2E2"/>
</g>
<path d="M25.7833 80.9939C25.7833 80.797 25.803 80.6 25.8424 80.4227H21.3515L5.98782 92.7727C5.19994 93.403 5.92873 94.6242 6.85448 94.25L25.0939 86.7849L26.8272 83.6333C26.1772 82.9242 25.7833 82.0182 25.7833 80.9939Z" fill="#8ABA55"/>
<path d="M53.2606 92.7727L37.9167 80.4227H33.4258C33.4455 80.6197 33.4849 80.797 33.4849 80.9939C33.4849 82.0182 33.0909 82.9242 32.4409 83.6136L34.1743 86.7651L52.4136 94.2303C53.3197 94.6242 54.0485 93.3833 53.2606 92.7727Z" fill="#8ABA55"/>
<path d="M29.6243 77.1531C30.1561 77.1531 30.6682 77.2713 31.1409 77.4682L33.3273 73.7849L30.4909 54.2849C30.353 53.3001 28.9152 53.3001 28.7773 54.2849L25.9409 73.7849L28.1273 77.4682C28.5803 77.2713 29.0924 77.1531 29.6243 77.1531Z" fill="#8ABA55"/>
<g opacity="0.2">
<path d="M26.0395 82.3333L5.73189 93.797C5.57431 93.4621 5.6137 93.0682 5.96825 92.7727L21.3319 80.4227H25.8228C25.8031 80.6197 25.7637 80.797 25.7637 80.9939C25.7637 81.4667 25.8622 81.9197 26.0395 82.3333Z" fill="white"/>
</g>
<g opacity="0.2">
<path d="M53.3788 93.9939L33.2485 82.2545C33.3864 81.8606 33.4652 81.447 33.4652 80.9939C33.4652 80.797 33.4258 80.6197 33.4061 80.4227H37.897L53.2607 92.7727C53.694 93.1273 53.6546 93.6394 53.3788 93.9939Z" fill="white"/>
</g>
<g opacity="0.2">
<path d="M33.3075 73.7849L31.1212 77.4683C30.6681 77.2713 30.156 77.1531 29.6045 77.1531V53.5562C29.9984 53.5562 30.3924 53.7925 30.4712 54.2849L33.3075 73.7849Z" fill="white"/>
</g>
<path d="M36.4396 26.3349C36.4396 31.6334 32.1259 35.947 26.8275 35.947C21.5093 35.947 17.2153 31.6334 17.2153 26.3349C17.2153 21.0167 21.5093 16.7228 26.8275 16.7228C32.1259 16.7228 36.4396 21.0167 36.4396 26.3349Z" fill="#FFAB03"/>
<path d="M87.4153 115.877L91.2956 89.1288C91.4335 88.1833 92.241 87.4742 93.2062 87.4742H120.25C121.215 87.4742 122.023 88.1833 122.161 89.1288L126.041 115.877C126.218 117.039 125.312 118.083 124.13 118.083H89.3259C88.1441 118.103 87.238 117.039 87.4153 115.877Z" fill="#7CB5E8"/>
<path d="M102.621 118.103H110.815V125.076H102.621V118.103Z" fill="#4E6575"/>
<g opacity="0.15">
<path d="M105.595 120.211C105.595 121.255 106.442 122.102 107.486 122.102H110.815V118.103H105.595V120.211Z" fill="#E2E2E2"/>
</g>
<g opacity="0.2">
<path d="M26.8274 16.7228C26.0198 16.7228 25.2516 16.841 24.5031 17.0379C24.3259 17.7864 24.188 18.5546 24.188 19.3622C24.188 24.6607 28.4819 28.9743 33.8001 28.9743C34.6077 28.9743 35.3759 28.8561 36.1047 28.6591C36.2819 27.9107 36.4198 27.1425 36.4198 26.3546C36.4395 21.0167 32.1259 16.7228 26.8274 16.7228Z" fill="white"/>
</g>
<g opacity="0.2">
<path d="M122.161 89.1288C122.023 88.1833 121.215 87.4742 120.25 87.4742H102.089V101.223C102.089 106.895 106.698 111.505 112.371 111.505H125.411L122.161 89.1288Z" fill="white"/>
</g>
<g opacity="0.2">
<path d="M122.161 89.1288C122.023 88.1833 121.215 87.4742 120.25 87.4742H106.029V101.223C106.029 104.729 108.865 107.565 112.371 107.565H124.839L122.161 89.1288Z" fill="white"/>
</g>
<g opacity="0.2">
<path d="M122.161 89.1288C122.023 88.1833 121.215 87.4742 120.25 87.4742H108.589C108.589 89.7591 110.441 91.6303 112.745 91.6303H116.114C117.079 91.6303 117.886 92.3394 118.024 93.2849L119.048 100.376C119.344 102.424 121.097 103.921 123.145 103.921H124.308L122.161 89.1288Z" fill="white"/>
</g>
<path d="M82.0576 125.076L78.197 53.0441C77.3303 53.5168 76.3455 53.8319 75.2819 53.8319C74.2182 53.8319 73.2334 53.5168 72.3667 53.0441L68.5061 125.076H82.0576Z" fill="#E2E2E2"/>
<g opacity="0.4">
<path d="M78.1969 53.0441C77.3303 53.5168 76.3454 53.8319 75.2818 53.8319C74.9863 53.8319 74.7106 53.8123 74.4348 53.7532L74.4939 96.9289C74.4939 100.593 77.3303 103.567 80.9151 103.862L78.1969 53.0441Z" fill="white"/>
</g>
<path d="M75.2817 53.8319C78.567 53.8319 81.2302 51.1687 81.2302 47.8834C81.2302 44.5982 78.567 41.9349 75.2817 41.9349C71.9965 41.9349 69.3333 44.5982 69.3333 47.8834C69.3333 51.1687 71.9965 53.8319 75.2817 53.8319Z" fill="#4E6575"/>
<path d="M69.3333 47.8835C69.3333 47.588 69.3727 47.2926 69.4318 46.9971L62.4787 46.9774L38.7242 66.0835C37.5227 67.0486 38.6454 68.9592 40.0833 68.3683L68.309 56.8062L70.9878 51.9214C69.9439 50.8774 69.3333 49.4592 69.3333 47.8835Z" fill="#8ABA55"/>
<path d="M111.859 66.0835L88.1045 46.9774L81.1514 46.9971C81.1908 47.2926 81.2499 47.588 81.2499 47.8835C81.2499 49.4592 80.6196 50.8774 79.6348 51.9411L82.3136 56.8259L110.539 68.388C111.957 68.9592 113.08 67.0683 111.859 66.0835Z" fill="#8ABA55"/>
<path d="M75.2819 41.9152C76.1091 41.9152 76.897 42.0925 77.6258 42.388L80.994 36.6955L76.6016 6.53948C76.3849 5.00312 74.1591 5.00312 73.9425 6.53948L69.55 36.7152L72.9182 42.4077C73.647 42.0925 74.4546 41.9152 75.2819 41.9152Z" fill="#8ABA55"/>
<g opacity="0.15">
<path d="M75.2818 41.9153C74.75 41.9153 74.2379 42.0138 73.7455 42.1319C73.6076 42.6244 73.5288 43.1365 73.5288 43.6683C73.5288 46.9577 76.1879 49.6168 79.4773 49.6168C80.0091 49.6168 80.5212 49.5183 81.0137 49.4001C81.1515 48.9077 81.2303 48.3956 81.2303 47.8638C81.2303 44.5941 78.5712 41.9153 75.2818 41.9153Z" fill="#E2E2E2"/>
</g>
<g opacity="0.2">
<path d="M76.6014 6.53952C76.4832 5.77134 75.8726 5.39709 75.262 5.39709V41.935C76.0892 41.935 76.8771 42.1122 77.6059 42.4077L80.9741 36.7153L76.6014 6.53952Z" fill="white"/>
</g>
<g opacity="0.2">
<path d="M111.859 66.0835L88.1045 46.9774L81.1515 46.9971C81.1909 47.2926 81.25 47.588 81.25 47.8835C81.25 48.5335 81.1121 49.1441 80.9348 49.735L112.076 67.9744C112.47 67.4426 112.529 66.6153 111.859 66.0835Z" fill="white"/>
</g>
<g opacity="0.2">
<path d="M69.3333 47.8835C69.3333 47.588 69.3727 47.2926 69.4317 46.9971L62.4787 46.9774L38.7242 66.0835C38.0545 66.6153 38.1136 67.4229 38.5272 67.9547L69.6681 49.6562C69.4514 49.1047 69.3333 48.5138 69.3333 47.8835Z" fill="white"/>
</g>
<path d="M88.1045 126.553H62.4787C61.6712 126.553 61.0015 125.883 61.0015 125.076C61.0015 124.268 61.6712 123.599 62.4787 123.599H88.1045C88.9121 123.599 89.5818 124.268 89.5818 125.076C89.5818 125.883 88.9318 126.553 88.1045 126.553Z" fill="#E2E2E2"/>
<path d="M37.9167 126.553H21.3515C20.544 126.553 19.8743 125.883 19.8743 125.076C19.8743 124.268 20.544 123.599 21.3515 123.599H37.9167C38.7243 123.599 39.394 124.268 39.394 125.076C39.394 125.883 38.7243 126.553 37.9167 126.553Z" fill="#E2E2E2"/>
<path d="M26.8668 12.6652C26.0592 12.6652 25.4092 12.0152 25.4092 11.2076V4.9046C25.4092 4.09702 26.0592 3.44702 26.8668 3.44702C27.6743 3.44702 28.3243 4.09702 28.3243 4.9046V11.2076C28.3243 12.0152 27.6743 12.6652 26.8668 12.6652Z" fill="#4E6575"/>
<path d="M21.0562 13.8076C20.485 13.8076 19.9335 13.4728 19.7168 12.9016L18.338 9.57279C18.0229 8.84401 18.3774 7.97734 19.1259 7.68188C19.8744 7.36673 20.7213 7.72128 21.0365 8.46976L22.4153 11.7986C22.7304 12.547 22.3759 13.394 21.6274 13.7092C21.4501 13.7682 21.2532 13.8076 21.0562 13.8076Z" fill="#4E6575"/>
<path d="M12.8622 21.9819C12.6849 21.9819 12.4879 21.9425 12.3106 21.8637L8.98185 20.4849C8.23336 20.1895 7.87882 19.3425 8.19397 18.594C8.50912 17.8455 9.35609 17.491 10.1046 17.8062L13.4334 19.1849C14.1818 19.5001 14.5364 20.3471 14.2212 21.0955C13.9849 21.6471 13.4334 21.9819 12.8622 21.9819Z" fill="#4E6575"/>
<path d="M9.51359 34.9622C8.94238 34.9622 8.39086 34.6273 8.17419 34.0561C7.85904 33.3076 8.21359 32.4607 8.96207 32.1455L12.2909 30.7667C13.0393 30.4516 13.8863 30.8061 14.2015 31.5546C14.5166 32.3031 14.1621 33.1501 13.4136 33.4652L10.0848 34.844C9.88783 34.9228 9.71056 34.9622 9.51359 34.9622Z" fill="#4E6575"/>
<path d="M19.6576 45.1061C19.4804 45.1061 19.2834 45.0668 19.1061 44.988C18.3576 44.6728 18.0031 43.8258 18.3182 43.0774L19.697 39.7486C20.0122 39.0001 20.8591 38.6455 21.6076 38.9607C22.3561 39.2758 22.7107 40.1228 22.3955 40.8713L21.0167 44.2001C20.7607 44.7713 20.2288 45.1061 19.6576 45.1061Z" fill="#4E6575"/>
<path d="M33.9971 45.1258C33.4259 45.1258 32.8744 44.791 32.6577 44.2197L31.2789 40.891C30.9638 40.1425 31.3183 39.2955 32.0668 38.9803C32.8153 38.6652 33.6623 39.0197 33.9774 39.7682L35.3562 43.097C35.6714 43.8455 35.3168 44.6925 34.5683 45.0076C34.3714 45.0864 34.1744 45.1258 33.9971 45.1258Z" fill="#4E6575"/>
<path d="M44.141 34.9818C43.9637 34.9818 43.7667 34.9424 43.5894 34.8636L40.2607 33.4849C39.5122 33.1697 39.1576 32.3227 39.4728 31.5743C39.7879 30.8258 40.6349 30.4712 41.3834 30.7864L44.7122 32.1652C45.4607 32.4803 45.8152 33.3273 45.5 34.0758C45.2637 34.647 44.7122 34.9818 44.141 34.9818Z" fill="#4E6575"/>
<path d="M40.8319 22.0213C40.2607 22.0213 39.7092 21.6864 39.4926 21.1152C39.1774 20.3667 39.5319 19.5197 40.2804 19.2046L43.6092 17.8258C44.3577 17.5107 45.2047 17.8652 45.5198 18.6137C45.835 19.3622 45.4804 20.2091 44.7319 20.5243L41.4032 21.9031C41.2062 22.0016 41.0092 22.0213 40.8319 22.0213Z" fill="#4E6575"/>
<path d="M32.6576 13.8273C32.4804 13.8273 32.2834 13.7879 32.1061 13.7092C31.3576 13.394 31.0031 12.547 31.3182 11.7986L32.697 8.46976C33.0122 7.72128 33.8591 7.36673 34.6076 7.68188C35.3561 7.99704 35.7107 8.844 35.3955 9.59249L34.0167 12.9213C33.7607 13.4925 33.2288 13.8273 32.6576 13.8273Z" fill="#4E6575"/>
<path d="M16.1515 17.0773C15.7772 17.0773 15.403 16.9394 15.1272 16.644L10.6757 12.2122C10.1045 11.641 10.1045 10.7152 10.6757 10.144C11.2469 9.57277 12.1727 9.57277 12.7439 10.144L17.1954 14.5955C17.7666 15.1667 17.7666 16.0925 17.1954 16.6637C16.9 16.9394 16.5257 17.0773 16.1515 17.0773Z" fill="#4E6575"/>
<path d="M11.7001 27.7728H5.39703C4.60915 27.7728 3.93945 27.1228 3.93945 26.3152C3.93945 25.5077 4.58945 24.8577 5.39703 24.8577H11.7001C12.5076 24.8577 13.1576 25.5077 13.1576 26.3152C13.1576 27.1228 12.5076 27.7728 11.7001 27.7728Z" fill="#4E6575"/>
<path d="M11.6607 42.9394C11.2864 42.9394 10.9122 42.8015 10.6364 42.5061C10.0652 41.9349 10.0652 41.0091 10.6364 40.4379L15.0879 35.9864C15.6591 35.4152 16.5849 35.4152 17.1561 35.9864C17.7273 36.5576 17.7273 37.4834 17.1561 38.0546L12.7046 42.5061C12.4091 42.8015 12.0349 42.9394 11.6607 42.9394Z" fill="#4E6575"/>
<path d="M26.8274 49.2425C26.0199 49.2425 25.3699 48.5925 25.3699 47.7849V41.4819C25.3699 40.6743 26.0199 40.0243 26.8274 40.0243C27.635 40.0243 28.285 40.6743 28.285 41.4819V47.7849C28.285 48.5728 27.6153 49.2425 26.8274 49.2425Z" fill="#4E6575"/>
<path d="M41.9742 42.9788C41.6 42.9788 41.2258 42.841 40.95 42.5455L36.4985 38.094C35.9273 37.5228 35.9273 36.597 36.4985 36.0258C37.0697 35.4546 37.9954 35.4546 38.5667 36.0258L43.0182 40.4773C43.5894 41.0485 43.5894 41.9743 43.0182 42.5455C42.7227 42.8213 42.3485 42.9788 41.9742 42.9788Z" fill="#4E6575"/>
<path d="M48.2775 27.8121H41.9744C41.1668 27.8121 40.5168 27.1621 40.5168 26.3545C40.5168 25.547 41.1668 24.897 41.9744 24.897H48.2775C49.085 24.897 49.735 25.547 49.735 26.3545C49.735 27.1621 49.085 27.8121 48.2775 27.8121Z" fill="#4E6575"/>
<path d="M37.5623 17.1167C37.188 17.1167 36.8138 16.9788 36.538 16.6833C35.9668 16.1121 35.9668 15.1864 36.538 14.6152L40.9895 10.1636C41.5608 9.59243 42.4865 9.59243 43.0577 10.1636C43.6289 10.7349 43.6289 11.6606 43.0577 12.2318L38.6062 16.6833C38.3108 16.9788 37.9365 17.1167 37.5623 17.1167Z" fill="#4E6575"/>
<path d="M125.489 112.095L125.076 109.18H117.158V104.256H124.17C124.229 104.256 124.288 104.236 124.347 104.217L123.933 101.302H117.158V96.3773H123.027C123.086 96.3773 123.145 96.3576 123.205 96.3379L122.791 93.4228H117.158V87.4546H114.203V93.4228H108.215V87.4546H105.261V93.4228H99.2925V87.4546H96.3379V93.4228H90.6652L90.2516 96.3379C90.3303 96.3576 90.3894 96.3773 90.4682 96.3773H96.3576V101.302H89.5425L89.1288 104.217C89.2076 104.236 89.2667 104.256 89.3455 104.256H96.3773V109.18H88.4197L88.0061 112.095C88.0849 112.115 88.144 112.135 88.2425 112.135H96.397V118.103H99.3516V112.135H105.32V118.103H108.274V112.135H114.262V118.103H117.217V112.135H125.352C125.352 112.135 125.411 112.095 125.489 112.095ZM105.261 109.18H99.2925V104.256H105.261V109.18ZM105.261 101.302H99.2925V96.3773H105.261V101.302ZM114.183 109.18H108.195V104.256H114.183V109.18ZM114.183 101.302H108.195V96.3773H114.183V101.302Z" fill="#4E6575"/>
<path d="M116.961 126.553H96.4956C95.688 126.553 95.0183 125.883 95.0183 125.076C95.0183 124.268 95.688 123.599 96.4956 123.599H116.961C117.768 123.599 118.438 124.268 118.438 125.076C118.438 125.883 117.788 126.553 116.961 126.553Z" fill="#4E6575"/>
<path d="M120.605 16.7622H97.5198C93.9743 16.7622 91.0789 13.8864 91.0789 10.3213C91.0789 6.77583 93.9546 3.88037 97.5198 3.88037C98.3273 3.88037 98.997 4.55007 98.997 5.35764C98.997 6.16522 98.3273 6.83492 97.5198 6.83492C95.6092 6.83492 94.0334 8.39098 94.0334 10.3213C94.0334 12.2319 95.5895 13.8076 97.5198 13.8076H120.624C121.432 13.8076 122.102 14.4773 122.102 15.2849C122.082 16.1122 121.432 16.7622 120.605 16.7622Z" fill="#4E6575"/>
<path d="M104.887 33.9971C101.341 33.9971 98.4653 31.1213 98.4653 27.5561C98.4653 24.0107 101.341 21.1152 104.887 21.1152H124.052C124.859 21.1152 125.529 21.7849 125.529 22.5925C125.529 23.4001 124.859 24.0698 124.052 24.0698H104.887C102.976 24.0698 101.42 25.6258 101.42 27.5561C101.42 29.4667 102.976 31.0425 104.887 31.0425C105.694 31.0425 106.364 31.7122 106.364 32.5198C106.364 33.3274 105.714 33.9971 104.887 33.9971Z" fill="#4E6575"/>
</svg>
