<svg width="130" height="130" viewBox="0 0 130 130" fill="none" xmlns="http://www.w3.org/2000/svg">
<g clip-path="url(#clip0_57_45)">
<path d="M79.9532 26.1493L42.699 63.4034C41.334 64.7684 42.3009 67.1021 44.2311 67.1021H58.5001L46.47 101.474C45.7091 103.649 48.4183 105.351 50.0473 103.722L87.3017 66.4676C88.6667 65.1026 87.6998 62.7689 85.7696 62.7689H71.5001L83.5302 28.3969C84.2914 26.2224 81.5825 24.5202 79.9532 26.1493Z" fill="#FFC552"/>
<path d="M45.4987 90.3378C45.0069 90.3378 44.5121 90.1713 44.1061 89.83C36.7301 83.6337 32.5 74.5598 32.5 64.9355C32.5 56.6589 35.6126 48.7744 41.2646 42.734C46.8894 36.7232 54.4949 33.0947 62.6806 32.5168C63.8793 32.432 64.9104 33.3321 64.9944 34.5254C65.0787 35.719 64.1794 36.755 62.9858 36.8395C48.3212 37.8747 36.8337 50.2158 36.8337 64.9355C36.8337 73.2766 40.5006 81.1411 46.8937 86.5122C47.5536 87.0665 47.8243 87.9859 47.5709 88.8093C47.2938 89.7084 46.4389 90.3378 45.4987 90.3378Z" fill="#D1CDB2"/>
<path d="M46.5972 30.2691C45.8025 30.2691 45.038 29.8306 44.6582 29.0717C44.1224 28.002 44.5558 26.7 45.6258 26.1645C51.6728 23.1374 58.1911 21.6023 64.9999 21.6023C67.2924 21.6023 69.5935 21.7828 71.8396 22.1391C73.0215 22.3264 73.8274 23.4365 73.64 24.6184C73.4526 25.8001 72.3433 26.6075 71.1606 26.4186C69.1385 26.0977 67.0659 25.9352 65.0001 25.9352C58.8708 25.9352 53.0048 27.3159 47.5654 30.0388C47.2541 30.1952 46.923 30.2691 46.5972 30.2691Z" fill="#D1CDB2"/>
<path d="M41.165 100.672C40.7305 100.672 40.292 100.542 39.9109 100.271C28.4869 92.1458 21.6665 78.9361 21.6665 64.9355C21.6665 51.8578 27.485 39.6116 37.6306 31.3378C38.5579 30.5815 39.9226 30.7201 40.679 31.6476C41.4351 32.5749 41.2965 33.9396 40.3692 34.6958C31.2375 42.1436 25.9999 53.1654 25.9999 64.9355C25.9999 77.5363 32.1391 89.4257 42.4223 96.7398C43.1911 97.2869 43.5248 98.3208 43.2145 99.2128C42.9167 100.069 42.0729 100.672 41.165 100.672Z" fill="#D1CDB2"/>
<path d="M64.9998 97.4354C63.8032 97.4354 62.8333 96.4652 62.8333 95.2688C62.8333 94.0724 63.8034 93.1023 64.9998 93.1023C70.7945 93.1023 76.3596 91.3569 81.0937 88.0549C82.075 87.3701 83.4256 87.6108 84.1103 88.5921C84.7951 89.5737 84.5542 90.9243 83.5728 91.609C78.108 95.4207 71.6857 97.4354 64.9998 97.4354Z" fill="#D1CDB2"/>
<path d="M88.2349 86.6023C86.4228 86.6023 85.4188 84.4207 86.5769 83.042C90.8265 77.9839 93.1668 71.5537 93.1668 64.9357C93.1668 56.5946 89.4999 48.7301 83.1068 43.359C82.1904 42.5894 82.0718 41.2226 82.8417 40.3065C83.6118 39.3897 84.9783 39.2716 85.8941 40.0414C93.2701 46.2378 97.5002 55.3116 97.5002 64.9359C97.5002 72.5719 94.7992 79.9921 89.895 85.8296C89.4661 86.3392 88.8524 86.6023 88.2349 86.6023Z" fill="#D1CDB2"/>
<path d="M65 108.269C62.7075 108.269 60.4063 108.088 58.1603 107.732C56.9783 107.545 56.1724 106.435 56.3598 105.253C56.5475 104.071 57.6573 103.265 58.8392 103.453C60.8613 103.773 62.934 103.936 64.9997 103.936C86.5043 103.936 104 86.4403 104 64.9359C104 57.6595 101.983 50.5621 98.1688 44.4114C97.5381 43.3945 97.8514 42.0587 98.8683 41.428C99.8852 40.7971 101.221 41.1107 101.851 42.1273C106.092 48.9642 108.333 56.8513 108.333 64.9357C108.333 88.8298 88.8941 108.269 65 108.269Z" fill="#D1CDB2"/>
<path d="M113.077 21.1916L117.635 16.6342C119 15.2692 118.033 12.9355 116.103 12.9355H95.3336C94.137 12.9355 93.1671 13.9057 93.1671 15.1021V35.8714C93.1671 37.8016 95.5007 38.7685 96.8657 37.4035L100.801 33.4679C108.118 41.7864 112.585 52.6739 112.666 64.6042C112.845 90.9264 91.4103 112.555 65.0871 112.602C38.7217 112.649 17.3336 91.29 17.3336 64.9355C17.3336 52.32 22.2356 40.8497 30.2374 32.3236C31.0905 31.4146 31.9797 30.5394 32.9024 29.6992L22.198 16.0218C20.4399 17.5615 18.7652 19.1938 17.1823 20.9123C6.22906 32.8024 -0.34762 48.7864 0.0141963 66.3102C0.742653 101.594 29.7865 129.977 65.0782 129.936C100.941 129.893 130 100.808 130 64.9355C130 48.0886 123.591 32.7392 113.077 21.1916Z" fill="#58AB23"/>
<path d="M30.2371 32.3238C34.7706 27.4935 40.3213 23.6072 46.5181 20.9945C51.1085 19.0593 56.0909 17.8217 61.2581 17.4157C63.365 17.2502 64.9999 15.5129 64.9999 13.3997V4.09453C64.9999 1.77738 63.0484 -0.0766437 60.7361 0.0729071C53.3609 0.549743 46.3388 2.25549 39.8414 4.98549C31.1712 8.62853 23.4586 14.0987 17.1823 20.912C6.98082 31.9864 0.579082 46.6121 0.0400391 62.7248L17.3412 64.2794C17.5083 51.9226 22.3744 40.7015 30.2371 32.3238Z" fill="#66BF00"/>
<path d="M46.5182 20.9945C51.1085 19.0592 56.0909 17.8217 61.2582 17.4157C63.3651 17.2502 65 15.5129 65 13.3997V4.09453C65 1.77738 63.0485 -0.0766437 60.7361 0.0729071C53.3609 0.549743 46.3389 2.25549 39.8414 4.98548C33.3579 7.7099 27.4104 11.4563 22.198 16.0218L32.9024 29.6994C36.8827 26.076 41.4875 23.1157 46.5182 20.9945Z" fill="#B6E462"/>
<path d="M113.078 21.1916L117.635 16.6342C119 15.2692 118.033 12.9355 116.103 12.9355H95.334C94.1373 12.9355 93.1674 13.9057 93.1674 15.1021V35.8714C93.1674 37.8016 95.5011 38.7685 96.8661 37.4035L100.801 33.4679C108.119 41.7864 112.585 52.6739 112.666 64.6042C112.845 90.9264 91.4106 112.555 65.0874 112.602C38.722 112.649 17.334 91.29 17.334 64.9356C17.334 64.7162 17.3388 64.4978 17.3419 64.2792L0.0407028 62.7245C0.000839484 63.9121 -0.00982458 65.1069 0.0150582 66.3099C0.743515 101.594 29.7873 129.977 65.079 129.936C100.941 129.893 130 100.808 130 64.9356C130 48.0886 123.591 32.7392 113.078 21.1916Z" fill="#58AB23"/>
</g>
<defs>
<clipPath id="clip0_57_45">
<rect width="130" height="130" fill="white"/>
</clipPath>
</defs>
</svg>
