<svg width="65" height="65" viewBox="0 0 65 65" fill="none" xmlns="http://www.w3.org/2000/svg">
<g clip-path="url(#clip0_18_272)">
<path d="M65 32.5C65 14.5799 50.4201 0 32.5 0C26.8817 0 21.4081 1.45516 16.5551 4.19355H12.5806V0H6.29032V13.3009C2.18064 18.8993 0 25.5251 0 32.5C0 50.4211 14.5799 65 32.5 65C36.4933 65 40.3912 64.2819 44.0868 62.8707C46.1961 64.2116 48.6913 65 51.371 65C54.6398 65 57.8018 63.8248 60.2739 61.6913L58.9036 60.104C56.8121 61.9094 54.1377 62.9032 51.371 62.9032C45.0125 62.9032 39.8387 57.7294 39.8387 51.371C39.8387 45.0125 45.0125 39.8387 51.371 39.8387C57.7294 39.8387 62.9032 45.0125 62.9032 51.371C62.9032 54.0286 62.0247 56.5269 60.3609 58.5954L61.9953 59.9101C63.9327 57.4998 65 54.4679 65 51.371C65 48.6892 64.2106 46.194 62.8686 44.0836C64.2787 40.387 65 36.4933 65 32.5ZM16.7742 10.4839H18.871V12.5806V25.1613H16.7742V10.4839ZM12.5806 6.29032H14.6774V8.3871V25.1613H12.5806V6.29032ZM8.3871 2.09677H10.4839V4.19355V25.1613H8.3871V2.09677ZM31.4516 62.877C15.5203 62.3329 2.6671 49.4797 2.12298 33.5484H31.4516V62.877ZM31.4516 31.4516H2.13871C2.3096 26.3481 3.72702 21.471 6.29032 17.1233V27.2581H10.4839H12.5806H14.6774H16.7742H18.871H20.9677H23.0645H25.1613H29.3548V16.7742H25.1613V12.5806H20.9677V8.3871H16.7742V6.49161C21.2099 3.80355 26.2506 2.31169 31.4516 2.13347V31.4516ZM20.9677 25.1613V14.6774H23.0645V16.7742V25.1613H20.9677ZM25.1613 25.1613V18.871H27.2581V25.1613H25.1613ZM62.877 31.4516H53.9018L61.6116 23.7418C62.3518 26.196 62.7858 28.7803 62.877 31.4516ZM57.5942 15.3589L45.8848 27.0683L47.3672 28.5507L58.7422 17.1757C59.5557 18.5638 60.2613 20.021 60.8505 21.5381L50.9369 31.4516H44.4663L45.8219 30.096L44.3394 28.6136L41.5014 31.4516H35.0308L54.7122 11.7702C55.7585 12.892 56.724 14.0893 57.5942 15.3589ZM33.5484 2.12298C36.2197 2.21419 38.804 2.64823 41.2582 3.38839L33.5484 11.0982V2.12298ZM33.5484 23.4985L46.2894 10.7575L44.807 9.27508L33.5484 20.5337V14.0631L43.4619 4.14952C44.979 4.73766 46.4362 5.44323 47.8243 6.25782L46.1353 7.94677L47.6177 9.42919L49.6411 7.40581C50.9107 8.27597 52.108 9.24048 53.2298 10.2878L33.5484 29.9692V23.4985ZM51.371 37.7419C43.8561 37.7419 37.7419 43.8561 37.7419 51.371C37.7419 55.3139 39.4351 58.8596 42.12 61.3506C39.3575 62.2721 36.4839 62.7806 33.5484 62.8791V33.5484H62.8791C62.7806 36.4828 62.2679 39.3544 61.3474 42.1169C58.8564 39.433 55.3119 37.7419 51.371 37.7419Z" fill="#0A9642"/>
<path d="M25.473 38.0486L12.8922 50.6294L14.3748 52.112L26.9556 39.5313L25.473 38.0486Z" fill="#0A9642"/>
<path d="M24.1129 46.1289C22.3789 46.1289 20.9678 47.54 20.9678 49.2741C20.9678 51.0081 22.3789 52.4192 24.1129 52.4192C25.847 52.4192 27.2581 51.0081 27.2581 49.2741C27.2581 47.54 25.847 46.1289 24.1129 46.1289ZM24.1129 50.3225C23.5353 50.3225 23.0645 49.8528 23.0645 49.2741C23.0645 48.6954 23.5353 48.2257 24.1129 48.2257C24.6906 48.2257 25.1613 48.6954 25.1613 49.2741C25.1613 49.8528 24.6906 50.3225 24.1129 50.3225Z" fill="#0A9642"/>
<path d="M15.7258 37.7417C13.9918 37.7417 12.5807 39.1528 12.5807 40.8869C12.5807 42.6209 13.9918 44.032 15.7258 44.032C17.4599 44.032 18.871 42.6209 18.871 40.8869C18.871 39.1528 17.4599 37.7417 15.7258 37.7417ZM15.7258 41.9352C15.1482 41.9352 14.6775 41.4656 14.6775 40.8869C14.6775 40.3082 15.1482 39.8385 15.7258 39.8385C16.3035 39.8385 16.7742 40.3082 16.7742 40.8869C16.7742 41.4656 16.3035 41.9352 15.7258 41.9352Z" fill="#0A9642"/>
<path d="M51.3709 50.3226C50.2145 50.3226 49.2741 49.3822 49.2741 48.2259C49.2741 47.0695 50.2145 46.1291 51.3709 46.1291C52.5273 46.1291 53.4677 47.0695 53.4677 48.2259H55.5645C55.5645 46.2769 54.2225 44.6498 52.4193 44.1812V41.9355H50.3225V44.1812C48.5193 44.6498 47.1774 46.2769 47.1774 48.2259C47.1774 50.5386 49.0582 52.4194 51.3709 52.4194C52.5273 52.4194 53.4677 53.3598 53.4677 54.5162C53.4677 55.6726 52.5273 56.613 51.3709 56.613C50.2145 56.613 49.2741 55.6726 49.2741 54.5162H47.1774C47.1774 56.4651 48.5193 58.0922 50.3225 58.5609V60.8065H52.4193V58.5609C54.2225 58.0922 55.5645 56.4651 55.5645 54.5162C55.5645 52.2035 53.6837 50.3226 51.3709 50.3226Z" fill="#0A9642"/>
<path d="M60.8065 50.3228H58.7097V52.4195H60.8065V50.3228Z" fill="#0A9642"/>
<path d="M44.0322 50.3228H41.9354V52.4195H44.0322V50.3228Z" fill="#0A9642"/>
</g>
<defs>
<clipPath id="clip0_18_272">
<rect width="65" height="65" fill="white"/>
</clipPath>
</defs>
</svg>
