<svg width="37" height="37" viewBox="0 0 37 37" fill="none" xmlns="http://www.w3.org/2000/svg">
<path fill-rule="evenodd" clip-rule="evenodd" d="M10.7917 4.23926C10.1532 4.23926 9.6355 4.75693 9.6355 5.39551V31.6038C9.6355 32.2424 10.1532 32.7601 10.7917 32.7601H26.2084C26.847 32.7601 27.3647 32.2424 27.3647 31.6038V5.39551C27.3647 4.75693 26.847 4.23926 26.2084 4.23926H10.7917ZM7.323 5.39551C7.323 3.47977 8.87601 1.92676 10.7917 1.92676H26.2084C28.1241 1.92676 29.6772 3.47977 29.6772 5.39551V31.6038C29.6772 33.5195 28.1241 35.0726 26.2084 35.0726H10.7917C8.87601 35.0726 7.323 33.5195 7.323 31.6038V5.39551Z" fill="white"/>
<path fill-rule="evenodd" clip-rule="evenodd" d="M15.8022 7.70801C15.8022 7.06943 16.3199 6.55176 16.9585 6.55176H20.0418C20.6804 6.55176 21.1981 7.06943 21.1981 7.70801C21.1981 8.34658 20.6804 8.86426 20.0418 8.86426H16.9585C16.3199 8.86426 15.8022 8.34658 15.8022 7.70801Z" fill="white"/>
<path fill-rule="evenodd" clip-rule="evenodd" d="M14.2605 29.291C14.2605 28.6525 14.7782 28.1348 15.4167 28.1348H21.5834C22.222 28.1348 22.7397 28.6525 22.7397 29.291C22.7397 29.9296 22.222 30.4473 21.5834 30.4473H15.4167C14.7782 30.4473 14.2605 29.9296 14.2605 29.291Z" fill="white"/>
</svg>
