<svg width="20" height="20" viewBox="0 0 20 20" fill="none" xmlns="http://www.w3.org/2000/svg">
<path d="M10 5.58319C8.59053 5.58319 7.44385 6.72991 7.44385 8.13936C7.44385 9.54882 8.59053 10.6955 10 10.6955C11.4095 10.6955 12.5562 9.54882 12.5562 8.13936C12.5562 6.72991 11.4095 5.58319 10 5.58319Z" fill="white"/>
<path d="M15.9814 2.47758C14.3837 0.879883 12.2595 0 10 0C7.74055 0 5.61629 0.879883 4.01863 2.47758C2.4209 4.07531 1.54102 6.19953 1.54102 8.45895C1.54102 13.0298 5.86289 16.8315 8.18476 18.874C8.50738 19.1578 8.78602 19.4029 9.00793 19.6102C9.28609 19.8701 9.64297 20 9.99996 20C10.3569 20 10.7139 19.87 10.992 19.6103C11.214 19.4029 11.4926 19.1579 11.8152 18.874C14.1371 16.8316 18.4589 13.0298 18.4589 8.45898C18.4589 6.19953 17.5791 4.07531 15.9814 2.47758ZM10 11.8671C7.94449 11.8671 6.27226 10.1948 6.27226 8.13934C6.27226 6.08383 7.94449 4.4116 10 4.4116C12.0555 4.4116 13.7277 6.08383 13.7277 8.13934C13.7277 10.1948 12.0555 11.8671 10 11.8671Z" fill="white"/>
</svg>
