<svg width="226" height="63" viewBox="0 0 226 63" fill="none" xmlns="http://www.w3.org/2000/svg">
<path d="M57.3542 55V46.18H58.7942V55H57.3542ZM62.7302 55L59.9462 51.148H61.5782L64.4462 55H62.7302ZM58.3262 51.952V50.74H60.6062C60.9502 50.74 61.2462 50.672 61.4942 50.536C61.7422 50.392 61.9302 50.196 62.0582 49.948C62.1942 49.7 62.2622 49.412 62.2622 49.084C62.2622 48.764 62.1942 48.48 62.0582 48.232C61.9302 47.984 61.7422 47.788 61.4942 47.644C61.2462 47.5 60.9502 47.428 60.6062 47.428H58.3262V46.18H60.4142C61.0862 46.18 61.6702 46.284 62.1662 46.492C62.6622 46.692 63.0462 46.996 63.3182 47.404C63.5902 47.812 63.7262 48.336 63.7262 48.976V49.168C63.7262 49.808 63.5862 50.332 63.3062 50.74C63.0342 51.148 62.6502 51.452 62.1542 51.652C61.6662 51.852 61.0862 51.952 60.4142 51.952H58.3262ZM65.8738 55V46.24H67.3018V55H65.8738ZM67.0618 55V53.752H71.1658V55H67.0618ZM67.0618 51.172V49.924H70.8298V51.172H67.0618ZM67.0618 47.488V46.24H71.0578V47.488H67.0618ZM73.0456 55V46.24H75.3976L79.4656 53.764H79.8616L79.6216 53.98V46.24H80.9896V55H78.6136L74.5456 47.476H74.1496L74.3896 47.26V55H73.0456ZM83.3464 55V46.24H84.7744V55H83.3464ZM84.5344 55V53.752H88.6384V55H84.5344ZM84.5344 51.172V49.924H88.3024V51.172H84.5344ZM84.5344 47.488V46.24H88.5304V47.488H84.5344ZM91.9583 55L89.6663 46.24H91.1543L93.0863 54.052L92.5703 53.764H93.8783L93.3143 54.052L94.8623 46.588H96.1343L94.2983 55H91.9583ZM97.2143 55L95.1983 46.588H96.5303L98.2943 54.052L97.7423 53.764H99.0503L98.5103 54.052L100.226 46.24H101.642L99.5783 55H97.2143ZM101.853 55L104.925 46.24H107.313L110.481 55H108.993L106.221 47.2L106.809 47.476H105.357L105.981 47.2L103.293 55H101.853ZM103.845 52.528L104.301 51.28H107.973L108.441 52.528H103.845ZM113.116 55.048V53.848H115.432C115.864 53.848 116.196 53.728 116.428 53.488C116.668 53.248 116.788 52.92 116.788 52.504C116.788 52.08 116.672 51.752 116.44 51.52C116.208 51.28 115.872 51.16 115.432 51.16H113.116V50.248H115.288C115.864 50.248 116.372 50.32 116.812 50.464C117.252 50.6 117.6 50.828 117.856 51.148C118.112 51.468 118.24 51.904 118.24 52.456V52.624C118.24 53.136 118.128 53.576 117.904 53.944C117.688 54.304 117.36 54.58 116.92 54.772C116.488 54.956 115.944 55.048 115.288 55.048H113.116ZM111.928 55.048V46.18H113.356V55.048H111.928ZM113.116 50.908V50.008H115.108C115.564 50.008 115.896 49.888 116.104 49.648C116.32 49.4 116.428 49.084 116.428 48.7C116.428 48.308 116.32 47.992 116.104 47.752C115.896 47.504 115.564 47.38 115.108 47.38H113.116V46.18H114.928C115.904 46.18 116.64 46.388 117.136 46.804C117.632 47.212 117.88 47.8 117.88 48.568V48.736C117.88 49.28 117.752 49.712 117.496 50.032C117.248 50.352 116.9 50.58 116.452 50.716C116.012 50.844 115.504 50.908 114.928 50.908H113.116ZM120.132 55V46.24H121.572V55H120.132ZM121.332 55V53.716H125.232V55H121.332ZM126.718 55V46.24H128.146V55H126.718ZM127.906 55V53.752H132.01V55H127.906ZM127.906 51.172V49.924H131.674V51.172H127.906ZM127.906 47.488V46.24H131.902V47.488H127.906ZM138.266 55V47.272H139.706V55H138.266ZM135.674 47.512V46.24H142.31V47.512H135.674ZM143.768 55V46.24H145.196V55H143.768ZM144.956 55V53.752H149.06V55H144.956ZM144.956 51.172V49.924H148.724V51.172H144.956ZM144.956 47.488V46.24H148.952V47.488H144.956ZM154.746 55.216C153.946 55.216 153.262 55.08 152.694 54.808C152.134 54.528 151.678 54.164 151.326 53.716C150.982 53.26 150.726 52.772 150.558 52.252C150.398 51.724 150.318 51.216 150.318 50.728V50.464C150.318 49.928 150.402 49.396 150.57 48.868C150.738 48.34 150.994 47.86 151.338 47.428C151.69 46.996 152.142 46.648 152.694 46.384C153.254 46.12 153.914 45.988 154.674 45.988C155.466 45.988 156.15 46.128 156.726 46.408C157.302 46.688 157.758 47.08 158.094 47.584C158.438 48.08 158.642 48.668 158.706 49.348H157.254C157.19 48.9 157.038 48.528 156.798 48.232C156.566 47.928 156.266 47.7 155.898 47.548C155.538 47.396 155.13 47.32 154.674 47.32C154.202 47.32 153.782 47.404 153.414 47.572C153.054 47.74 152.754 47.972 152.514 48.268C152.274 48.564 152.09 48.912 151.962 49.312C151.842 49.704 151.782 50.136 151.782 50.608C151.782 51.056 151.842 51.48 151.962 51.88C152.09 52.272 152.278 52.62 152.526 52.924C152.774 53.228 153.082 53.464 153.45 53.632C153.826 53.8 154.258 53.884 154.746 53.884C155.45 53.884 156.042 53.712 156.522 53.368C157.002 53.016 157.294 52.516 157.398 51.868H158.862C158.782 52.484 158.574 53.048 158.238 53.56C157.902 54.064 157.442 54.468 156.858 54.772C156.274 55.068 155.57 55.216 154.746 55.216ZM166.276 55V46.24H167.716V55H166.276ZM160.432 55V46.24H161.872V55H160.432ZM161.596 51.268V49.984H166.552V51.268H161.596ZM170.065 55V46.24H172.417L176.485 53.764H176.881L176.641 53.98V46.24H178.009V55H175.633L171.565 47.476H171.169L171.409 47.26V55H170.065ZM184.386 55.216C183.594 55.216 182.91 55.08 182.334 54.808C181.766 54.528 181.294 54.16 180.918 53.704C180.542 53.248 180.262 52.76 180.078 52.24C179.902 51.712 179.814 51.208 179.814 50.728V50.464C179.814 49.936 179.906 49.408 180.09 48.88C180.282 48.352 180.566 47.872 180.942 47.44C181.326 47 181.802 46.648 182.37 46.384C182.946 46.12 183.618 45.988 184.386 45.988C185.154 45.988 185.822 46.12 186.39 46.384C186.958 46.648 187.434 47 187.818 47.44C188.202 47.872 188.486 48.352 188.67 48.88C188.862 49.408 188.958 49.936 188.958 50.464V50.728C188.958 51.208 188.866 51.712 188.682 52.24C188.498 52.76 188.218 53.248 187.842 53.704C187.474 54.16 187.002 54.528 186.426 54.808C185.85 55.08 185.17 55.216 184.386 55.216ZM184.386 53.884C184.866 53.884 185.298 53.796 185.682 53.62C186.066 53.444 186.394 53.204 186.666 52.9C186.938 52.596 187.142 52.248 187.278 51.856C187.422 51.464 187.494 51.048 187.494 50.608C187.494 50.144 187.422 49.716 187.278 49.324C187.134 48.924 186.926 48.576 186.654 48.28C186.39 47.976 186.066 47.74 185.682 47.572C185.298 47.404 184.866 47.32 184.386 47.32C183.906 47.32 183.474 47.404 183.09 47.572C182.706 47.74 182.378 47.976 182.106 48.28C181.834 48.576 181.626 48.924 181.482 49.324C181.346 49.716 181.278 50.144 181.278 50.608C181.278 51.048 181.346 51.464 181.482 51.856C181.626 52.248 181.834 52.596 182.106 52.9C182.378 53.204 182.706 53.444 183.09 53.62C183.474 53.796 183.906 53.884 184.386 53.884ZM190.749 55V46.24H192.189V55H190.749ZM191.949 55V53.716H195.849V55H191.949ZM201.202 55.216C200.41 55.216 199.726 55.08 199.15 54.808C198.582 54.528 198.11 54.16 197.734 53.704C197.358 53.248 197.078 52.76 196.894 52.24C196.718 51.712 196.63 51.208 196.63 50.728V50.464C196.63 49.936 196.722 49.408 196.906 48.88C197.098 48.352 197.382 47.872 197.758 47.44C198.142 47 198.618 46.648 199.186 46.384C199.762 46.12 200.434 45.988 201.202 45.988C201.97 45.988 202.638 46.12 203.206 46.384C203.774 46.648 204.25 47 204.634 47.44C205.018 47.872 205.302 48.352 205.486 48.88C205.678 49.408 205.774 49.936 205.774 50.464V50.728C205.774 51.208 205.682 51.712 205.498 52.24C205.314 52.76 205.034 53.248 204.658 53.704C204.29 54.16 203.818 54.528 203.242 54.808C202.666 55.08 201.986 55.216 201.202 55.216ZM201.202 53.884C201.682 53.884 202.114 53.796 202.498 53.62C202.882 53.444 203.21 53.204 203.482 52.9C203.754 52.596 203.958 52.248 204.094 51.856C204.238 51.464 204.31 51.048 204.31 50.608C204.31 50.144 204.238 49.716 204.094 49.324C203.95 48.924 203.742 48.576 203.47 48.28C203.206 47.976 202.882 47.74 202.498 47.572C202.114 47.404 201.682 47.32 201.202 47.32C200.722 47.32 200.29 47.404 199.906 47.572C199.522 47.74 199.194 47.976 198.922 48.28C198.65 48.576 198.442 48.924 198.298 49.324C198.162 49.716 198.094 50.144 198.094 50.608C198.094 51.048 198.162 51.464 198.298 51.856C198.442 52.248 198.65 52.596 198.922 52.9C199.194 53.204 199.522 53.444 199.906 53.62C200.29 53.796 200.722 53.884 201.202 53.884ZM211.561 55.216C210.841 55.216 210.201 55.1 209.641 54.868C209.081 54.628 208.605 54.3 208.213 53.884C207.821 53.468 207.521 52.984 207.313 52.432C207.113 51.88 207.013 51.296 207.013 50.68V50.416C207.013 49.864 207.109 49.324 207.301 48.796C207.493 48.268 207.773 47.792 208.141 47.368C208.517 46.944 208.973 46.608 209.509 46.36C210.053 46.112 210.673 45.988 211.369 45.988C212.113 45.988 212.777 46.132 213.361 46.42C213.945 46.7 214.413 47.092 214.765 47.596C215.117 48.092 215.321 48.668 215.377 49.324H213.913C213.865 48.892 213.717 48.528 213.469 48.232C213.229 47.936 212.925 47.712 212.557 47.56C212.197 47.4 211.801 47.32 211.369 47.32C210.937 47.32 210.541 47.4 210.181 47.56C209.829 47.712 209.525 47.932 209.269 48.22C209.013 48.5 208.817 48.84 208.681 49.24C208.545 49.632 208.477 50.072 208.477 50.56C208.477 51.104 208.549 51.584 208.693 52C208.845 52.416 209.057 52.768 209.329 53.056C209.601 53.336 209.925 53.552 210.301 53.704C210.685 53.848 211.105 53.92 211.561 53.92C212.193 53.92 212.745 53.792 213.217 53.536C213.697 53.272 214.057 52.932 214.297 52.516L213.925 53.92V51.484H215.269V53.5C214.877 54.044 214.365 54.468 213.733 54.772C213.109 55.068 212.385 55.216 211.561 55.216ZM211.261 51.772V50.644H216.001V51.772H211.261ZM218.96 51.616L216.248 46.24H217.736L219.92 50.656L219.5 50.524H220.772L220.328 50.656L222.356 46.24H223.76L221.228 51.616H218.96ZM219.392 55V51.364H220.796V55H219.392Z" fill="#666666"/>
<path d="M58.8022 39V15.64H63.9222V39H58.8022ZM63.2822 39V34.648H73.4902V39H63.2822ZM63.2822 29.304V24.952H72.7542V29.304H63.2822ZM63.2822 19.992V15.64H73.2662V19.992H63.2822ZM81.0022 39V15.64H89.6102L98.4102 34.744H99.4982L98.8582 35.32V15.64H103.786V39H95.1142L86.3142 19.896H85.2262L85.8662 19.32V39H81.0022ZM112.233 39V15.64H117.353V39H112.233ZM116.713 39V34.648H126.921V39H116.713ZM116.713 29.304V24.952H126.185V29.304H116.713ZM116.713 19.992V15.64H126.697V19.992H116.713ZM134.433 39V15.448H139.681V39H134.433ZM148.609 39L141.761 28.952H147.521L154.689 39H148.609ZM138.273 31.512V27.384H144.033C144.801 27.384 145.463 27.2347 146.017 26.936C146.593 26.616 147.031 26.1787 147.329 25.624C147.649 25.048 147.809 24.3867 147.809 23.64C147.809 22.8933 147.649 22.2427 147.329 21.688C147.031 21.112 146.593 20.6747 146.017 20.376C145.463 20.056 144.801 19.896 144.033 19.896H138.273V15.448H143.617C145.559 15.448 147.244 15.7467 148.673 16.344C150.103 16.92 151.201 17.784 151.969 18.936C152.737 20.088 153.121 21.5387 153.121 23.288V23.8C153.121 25.528 152.727 26.968 151.937 28.12C151.169 29.2507 150.071 30.104 148.641 30.68C147.233 31.2347 145.559 31.512 143.617 31.512H138.273Z" fill="black"/>
<path d="M172.08 39.608C169.99 39.608 168.166 39.2667 166.608 38.584C165.051 37.88 163.76 36.9413 162.736 35.768C161.734 34.5947 160.987 33.2933 160.496 31.864C160.006 30.4347 159.76 29.0053 159.76 27.576V26.872C159.76 25.4 160.006 23.96 160.496 22.552C160.987 21.144 161.723 19.864 162.704 18.712C163.707 17.56 164.944 16.6427 166.416 15.96C167.91 15.2773 169.627 14.936 171.568 14.936C173.68 14.936 175.547 15.3307 177.168 16.12C178.79 16.888 180.091 17.9653 181.072 19.352C182.054 20.7173 182.619 22.3067 182.768 24.12H177.52C177.392 23.2667 177.051 22.52 176.496 21.88C175.963 21.24 175.27 20.7387 174.416 20.376C173.584 20.0133 172.635 19.832 171.568 19.832C170.544 19.832 169.627 20.0133 168.816 20.376C168.027 20.7387 167.344 21.2507 166.768 21.912C166.214 22.5733 165.787 23.3627 165.488 24.28C165.211 25.176 165.072 26.168 165.072 27.256C165.072 28.3867 165.222 29.4213 165.52 30.36C165.84 31.2773 166.299 32.0773 166.896 32.76C167.494 33.4213 168.23 33.9333 169.104 34.296C170 34.6587 170.992 34.84 172.08 34.84C173.531 34.84 174.79 34.5413 175.856 33.944C176.923 33.3467 177.691 32.5573 178.16 31.576L177.52 35.16V29.592H182.352V34.584C181.35 36.2053 179.963 37.4533 178.192 38.328C176.443 39.1813 174.406 39.608 172.08 39.608ZM171.408 30.616V26.84H184.272V30.616H171.408ZM190.929 39V15.64H196.177V39H190.929ZM202.354 39L210.322 26.552L210.386 27.096L203.026 15.64H208.786L213.33 22.936H214.066L218.546 15.64H224.146L216.754 27.16L216.658 26.648L224.882 39H219.09L213.778 30.744H213.01L207.954 39H202.354Z" fill="#0A9642"/>
<path fill-rule="evenodd" clip-rule="evenodd" d="M24.6271 54.74C33.9441 54.74 41.497 47.187 41.497 37.87C41.497 28.5529 33.9441 21 24.6271 21C15.31 21 7.75708 28.5529 7.75708 37.87C7.75708 47.187 15.31 54.74 24.6271 54.74ZM24.6271 50.5225C31.6148 50.5225 37.2795 44.8578 37.2795 37.87C37.2795 30.8822 31.6148 25.2175 24.6271 25.2175C17.6393 25.2175 11.9746 30.8822 11.9746 37.87C11.9746 44.8578 17.6393 50.5225 24.6271 50.5225Z" fill="#FE5716"/>
<path fill-rule="evenodd" clip-rule="evenodd" d="M49.2542 37.87C49.2542 51.4712 38.2283 62.4971 24.6271 62.4971C11.0259 62.4971 0 51.4712 0 37.87C0 25.5975 8.977 15.4216 20.7228 13.5507V17.5144C11.1445 19.3406 3.9043 27.7598 3.9043 37.87C3.9043 49.3149 13.1822 58.5928 24.6271 58.5928C36.072 58.5928 45.3499 49.3149 45.3499 37.87C45.3499 37.1603 45.3142 36.459 45.2446 35.7677H49.1657C49.2243 36.4607 49.2542 37.1618 49.2542 37.87Z" fill="#0A9642"/>
<path d="M30.1782 37.563L22.8449 45V37.563H19.1782L26.6425 30V37.563H30.1782Z" fill="#FE5716"/>
<path fill-rule="evenodd" clip-rule="evenodd" d="M44.1782 0H41.1782V3H44.1782V0ZM33.1782 5H38.1782V10H33.1782V5ZM34.1782 17H38.1782V21H34.1782V17ZM42.1782 27V23H46.1782V27H42.1782ZM50.1782 19H48.1782V21H50.1782V19Z" fill="#FE5716"/>
<path fill-rule="evenodd" clip-rule="evenodd" d="M24.1782 12H29.1782V17H24.1782V12ZM45.1782 30H48.1782V32H45.1782V30ZM44.1782 13H41.1782V16H44.1782V13Z" fill="#0A9642"/>
</svg>
