<svg width="50" height="50" viewBox="0 0 50 50" fill="none" xmlns="http://www.w3.org/2000/svg">
<g clip-path="url(#clip0_51_96)">
<path d="M43.367 8.98643C39.0896 4.70918 33.4026 2.35352 27.3535 2.35352C21.3045 2.35352 15.6174 4.70918 11.34 8.98652C7.36973 12.9568 5.05645 18.142 4.74463 23.7036C2.02764 24.3495 0 26.7952 0 29.7071V34.4141C0 35.223 0.655859 35.8789 1.46484 35.8789H1.56895V39.1211C1.56895 39.9301 2.2248 40.5859 3.03379 40.5859C3.84277 40.5859 4.49863 39.9301 4.49863 39.1211V35.8789H7.84492V39.1211C7.84492 39.9301 8.50078 40.5859 9.30977 40.5859C10.1188 40.5859 10.7746 39.9301 10.7746 39.1211V35.8789H10.8789C11.6879 35.8789 12.3438 35.223 12.3438 34.4141V29.7071C12.3438 26.8238 10.3561 24.3966 7.6791 23.7221C8.34004 13.4437 16.911 5.2832 27.3535 5.2832C38.2254 5.2832 47.0703 14.1281 47.0703 25C47.0703 35.3795 39.0092 43.9114 28.8184 44.663V41.2675C33.9047 40.5527 37.8312 36.173 37.8312 30.893C37.8312 24.6247 35.2675 19.0265 33.1168 15.4339C30.8034 11.5695 28.5029 9.17568 28.4062 9.07578C28.1302 8.79062 27.7504 8.62969 27.3536 8.62969C26.9568 8.62969 26.577 8.79062 26.3011 9.07578C26.2043 9.17568 23.9038 11.5695 21.5905 15.4339C19.4398 19.0265 16.8762 24.6247 16.8761 30.8931C16.8763 36.173 20.8027 40.5527 25.8889 41.2675V46.1816C25.8889 46.9906 26.5447 47.6465 27.3537 47.6465C33.4028 47.6465 39.0899 45.2908 43.3673 41.0135C47.6446 36.7361 50 31.0491 50 25C50 18.9509 47.6443 13.2638 43.367 8.98643ZM9.41406 29.7071V32.9492H2.92969V29.7071C2.92969 27.9193 4.38418 26.4648 6.17178 26.4648C7.95967 26.4648 9.41406 27.9193 9.41406 29.7071ZM21.3721 22.6184L25.8887 27.1351V31.3112L20.409 25.8313C20.669 24.7121 20.9994 23.6366 21.3721 22.6184ZM34.2981 25.8314L28.8184 31.3112V27.1351L33.335 22.6183C33.7076 23.6366 34.038 24.7121 34.2981 25.8314ZM28.8184 38.2968V35.4544L34.8479 29.4249C34.8824 29.9097 34.9015 30.3992 34.9015 30.893C34.9015 34.5536 32.2814 37.6128 28.8184 38.2968ZM32.0999 19.7102L28.8184 22.9919V14.2267C29.3933 15.0256 30.0187 15.958 30.6413 17.0027C31.1183 17.8031 31.6178 18.7122 32.0999 19.7102ZM25.8887 14.2268V22.9919L22.607 19.7103C23.0893 18.7123 23.5888 17.8031 24.0658 17.0026C24.6885 15.9578 25.3138 15.0255 25.8887 14.2268ZM19.8056 30.893C19.8056 30.3991 19.8246 29.9096 19.8592 29.4247L25.8887 35.4544V38.2968C22.4257 37.6128 19.8058 34.5536 19.8056 30.893Z" fill="white"/>
</g>
<defs>
<clipPath id="clip0_51_96">
<rect width="50" height="50" fill="white"/>
</clipPath>
</defs>
</svg>
