<svg width="55" height="55" viewBox="0 0 55 55" fill="none" xmlns="http://www.w3.org/2000/svg">
<g clip-path="url(#clip0_51_177)">
<path d="M44.8662 21.9823H24.3775C25.325 20.8933 25.9006 19.4727 25.9006 17.9193C25.9006 14.5008 23.1196 11.7197 19.7011 11.7197C16.2826 11.7197 13.5015 14.5008 13.5015 17.9193C13.5015 19.4727 14.0772 20.8933 15.0245 21.9823H10.1336C7.17816 21.9823 4.77368 24.3868 4.77368 27.3423V33.667C4.77368 34.259 5.25361 34.739 5.84567 34.739C6.43774 34.739 6.91767 34.259 6.91767 33.667V27.3423C6.91767 25.569 8.36036 24.1263 10.1336 24.1263H40.1495C41.9227 24.1263 43.3654 25.569 43.3654 27.3423V33.1311H32.2167C29.2612 33.1311 26.8567 35.5356 26.8567 38.491C26.8567 41.4465 29.2612 43.851 32.2167 43.851H43.3654V49.6398C43.3654 51.4131 41.9227 52.8557 40.1495 52.8557H10.1336C8.36036 52.8557 6.91767 51.4131 6.91767 49.6398V43.3066C6.91767 42.7146 6.43774 42.2346 5.84567 42.2346C5.25361 42.2346 4.77368 42.7146 4.77368 43.3066V49.6398C4.77368 52.5952 7.17816 54.9997 10.1336 54.9997H44.8662C47.8217 54.9997 50.2262 52.5952 50.2262 49.6398V27.3423C50.2262 24.3868 47.8217 21.9823 44.8662 21.9823ZM19.7011 13.8638C21.9374 13.8638 23.7566 15.6831 23.7566 17.9194C23.7566 20.1557 21.9374 21.9749 19.7011 21.9749C17.4649 21.9749 15.6455 20.1557 15.6455 17.9194C15.6455 15.6831 17.4648 13.8638 19.7011 13.8638ZM44.4345 24.1263H44.8662C46.6395 24.1263 48.0822 25.569 48.0822 27.3423V33.1311H45.5094V27.3423C45.5094 26.1366 45.109 25.0228 44.4345 24.1263ZM29.0007 38.491C29.0007 36.7177 30.4434 35.2751 32.2167 35.2751H48.0822V41.707H32.2167C30.4434 41.707 29.0007 40.2643 29.0007 38.491ZM44.8662 52.8557H44.4345C45.109 51.9592 45.5094 50.8455 45.5094 49.6398V43.851H48.0822V49.6398C48.0822 51.4131 46.6395 52.8557 44.8662 52.8557Z" fill="#0A9642"/>
<path d="M31.9424 37.4189C31.6593 37.4189 31.3828 37.5336 31.1834 37.733C30.984 37.9324 30.8704 38.209 30.8704 38.4909C30.8704 38.7729 30.984 39.0494 31.1834 39.2488C31.3838 39.4482 31.6593 39.5629 31.9424 39.5629C32.2243 39.5629 32.4998 39.4482 32.7003 39.2488C32.8996 39.0494 33.0143 38.7729 33.0143 38.4909C33.0143 38.209 32.8996 37.9324 32.7003 37.733C32.5009 37.5335 32.2243 37.4189 31.9424 37.4189Z" fill="#0A9642"/>
<path d="M35.2987 14.7565C38.7172 14.7565 41.4982 11.9755 41.4982 8.55697C41.4982 5.1386 38.7172 2.35742 35.2987 2.35742C31.8802 2.35742 29.0991 5.13849 29.0991 8.55697C29.0991 11.9755 31.8802 14.7565 35.2987 14.7565ZM35.2987 4.50152C37.5349 4.50152 39.3542 6.3208 39.3542 8.55708C39.3542 10.7934 37.535 12.6126 35.2987 12.6126C33.0624 12.6126 31.2431 10.7934 31.2431 8.55708C31.2431 6.3208 33.0624 4.50152 35.2987 4.50152Z" fill="#0A9642"/>
<path d="M24.8286 10.5673C25.4206 10.5673 25.9006 10.0874 25.9006 9.49533V1.0715C25.9006 0.479443 25.4206 -0.000488281 24.8286 -0.000488281C24.2365 -0.000488281 23.7566 0.479443 23.7566 1.0715V9.49533C23.7566 10.0874 24.2365 10.5673 24.8286 10.5673Z" fill="#0A9642"/>
<path d="M19.6831 6.86027C20.2751 6.86027 20.7551 6.38034 20.7551 5.78827V1.0715C20.7551 0.479443 20.2751 -0.000488281 19.6831 -0.000488281C19.091 -0.000488281 18.6111 0.479443 18.6111 1.0715V5.78827C18.6111 6.38034 19.091 6.86027 19.6831 6.86027Z" fill="#0A9642"/>
<path d="M5.84567 39.5629C6.12761 39.5629 6.40418 39.4482 6.60357 39.2488C6.80296 39.0494 6.91767 38.7729 6.91767 38.4909C6.91767 38.209 6.80296 37.9324 6.60357 37.733C6.40418 37.5336 6.12868 37.4189 5.84567 37.4189C5.56374 37.4189 5.28717 37.5336 5.08778 37.733C4.88838 37.9324 4.77368 38.209 4.77368 38.4909C4.77368 38.7729 4.88838 39.0494 5.08778 39.2488C5.28717 39.4482 5.56363 39.5629 5.84567 39.5629Z" fill="#0A9642"/>
</g>
<defs>
<clipPath id="clip0_51_177">
<rect width="55" height="55" fill="white" transform="translate(0 -0.000488281)"/>
</clipPath>
</defs>
</svg>
