<svg width="55" height="55" viewBox="0 0 55 55" fill="none" xmlns="http://www.w3.org/2000/svg">
<path d="M43.9202 30.3601L28.2011 36.653L19.6462 27.091C19.0742 26.4524 18.3741 25.9415 17.5915 25.5916C16.8088 25.2417 15.9613 25.0606 15.104 25.0601H6.36616C6.25312 25.06 6.14117 25.0823 6.03672 25.1255C5.93227 25.1688 5.83736 25.2322 5.75743 25.3121C5.67749 25.392 5.61408 25.4869 5.57084 25.5914C5.52759 25.6958 5.50534 25.8078 5.50537 25.9208V40.9813C5.50536 41.1067 5.53274 41.2305 5.58559 41.3442C5.63844 41.4579 5.71549 41.5587 5.81135 41.6395L14.7261 49.1537C16.0761 50.455 17.8101 51.2856 19.6702 51.522C21.5303 51.7585 23.417 51.3881 25.0496 50.4659L47.447 37.6659C47.991 37.3579 48.4559 36.9276 48.805 36.4089C49.154 35.8903 49.3776 35.2976 49.4581 34.6776C49.5437 33.9759 49.4462 33.2639 49.175 32.611C48.9039 31.9581 48.4684 31.3865 47.9108 30.9518C47.3533 30.5172 46.6927 30.2342 45.9934 30.1305C45.2941 30.0268 44.5799 30.1059 43.9202 30.3601ZM47.7521 34.4489C47.7056 34.8062 47.5767 35.1478 47.3755 35.4467C47.1743 35.7456 46.9064 35.9937 46.5929 36.1713L24.1973 48.9705C22.8792 49.7113 21.3567 50.0052 19.8577 49.8084C18.3586 49.6115 16.9636 48.9345 15.8815 47.8785L7.22695 40.5812V26.7816H15.1039C15.7191 26.782 16.3274 26.912 16.889 27.1631C17.4506 27.4143 17.953 27.7809 18.3634 28.2393L26.9351 37.8205C30.0227 41.4357 24.8403 46.0574 21.5745 42.6238L14.0952 34.2639C13.9429 34.0938 13.7293 33.9912 13.5013 33.9786C13.2734 33.966 13.0498 34.0444 12.8797 34.1967C12.7096 34.349 12.6069 34.5626 12.5943 34.7905C12.5817 35.0185 12.6601 35.2421 12.8124 35.4122L20.2938 43.7745C24.3299 48.1703 31.4614 43.6291 29.1505 38.1274L44.5539 31.9607C44.9344 31.8136 45.3466 31.7674 45.7502 31.8268C46.1538 31.8862 46.5352 32.0491 46.8572 32.2996C47.1792 32.5501 47.4309 32.8797 47.5877 33.2564C47.7445 33.633 47.8012 34.0439 47.7521 34.4489Z" fill="#0A9642"/>
<path d="M30.9503 30.1346C34.4947 30.1305 37.8927 28.7206 40.3989 26.2143C42.9052 23.708 44.315 20.31 44.319 16.7656C43.5873 -0.963995 18.3163 -0.969557 17.582 16.7655C17.586 20.3099 18.9957 23.7079 21.5018 26.2142C24.008 28.7206 27.406 30.1305 30.9503 30.1346ZM30.9503 5.11881C34.0382 5.12219 36.9986 6.3503 39.1822 8.53372C41.3657 10.7171 42.5939 13.6775 42.5974 16.7654C41.9599 32.2128 19.9436 32.2177 19.3036 16.7655C19.3071 13.6777 20.5352 10.7173 22.7187 8.53387C24.9021 6.35044 27.8625 5.12227 30.9503 5.11881Z" fill="#0A9642"/>
<path d="M30.9504 17.6265H35.905C36.1303 17.6221 36.3449 17.5294 36.5027 17.3685C36.6605 17.2075 36.7489 16.9911 36.7489 16.7657C36.7489 16.5403 36.6605 16.3239 36.5027 16.163C36.3449 16.002 36.1303 15.9094 35.905 15.9049H31.8112V10.5124C31.8105 10.2845 31.7194 10.0663 31.5581 9.90546C31.3967 9.74461 31.1782 9.6543 30.9504 9.6543C30.7226 9.6543 30.504 9.74461 30.3427 9.90546C30.1813 10.0663 30.0903 10.2845 30.0896 10.5124V16.7657C30.0896 16.8788 30.1118 16.9907 30.1551 17.0952C30.1983 17.1996 30.2617 17.2945 30.3416 17.3745C30.4216 17.4544 30.5165 17.5178 30.6209 17.5611C30.7254 17.6043 30.8373 17.6266 30.9504 17.6265Z" fill="#0A9642"/>
<path d="M30.9675 7.53847C31.1936 7.53409 31.409 7.44088 31.567 7.27899C31.7249 7.11711 31.8128 6.89955 31.8117 6.67336C31.8105 6.44717 31.7204 6.23052 31.5608 6.07025C31.4012 5.90998 31.1849 5.81897 30.9587 5.81689C30.7326 5.82127 30.5172 5.91448 30.3592 6.07637C30.2013 6.23826 30.1134 6.45582 30.1145 6.68201C30.1157 6.9082 30.2058 7.12485 30.3654 7.28512C30.525 7.44539 30.7413 7.5364 30.9675 7.53847Z" fill="#0A9642"/>
<path d="M23.8337 10.4931C24.0599 10.4887 24.2752 10.3955 24.4332 10.2336C24.5911 10.0717 24.6791 9.85414 24.6779 9.62795C24.6768 9.40176 24.5866 9.18511 24.427 9.02484C24.2674 8.86457 24.0511 8.77356 23.8249 8.77148C23.5988 8.77586 23.3834 8.86907 23.2255 9.03096C23.0675 9.19285 22.9796 9.41041 22.9807 9.6366C22.9819 9.86279 23.072 10.0794 23.2316 10.2397C23.3912 10.4 23.6075 10.491 23.8337 10.4931Z" fill="#0A9642"/>
<path d="M20.8702 15.9048C20.6449 15.9103 20.4307 16.0041 20.2737 16.1658C20.1167 16.3276 20.0294 16.5445 20.0305 16.7699C20.0317 16.9953 20.1212 17.2113 20.2798 17.3714C20.4385 17.5316 20.6536 17.6231 20.879 17.6264C21.1044 17.6208 21.3186 17.5271 21.4756 17.3653C21.6326 17.2036 21.7199 16.9867 21.7187 16.7613C21.7176 16.5359 21.6281 16.3199 21.4694 16.1597C21.3108 15.9996 21.0956 15.908 20.8702 15.9048Z" fill="#0A9642"/>
<path d="M23.8337 24.7606C24.0599 24.7563 24.2752 24.663 24.4332 24.5012C24.5911 24.3393 24.6791 24.1217 24.6779 23.8955C24.6768 23.6693 24.5866 23.4527 24.427 23.2924C24.2674 23.1321 24.0511 23.0411 23.8249 23.0391C23.5988 23.0434 23.3834 23.1367 23.2255 23.2985C23.0675 23.4604 22.9796 23.678 22.9807 23.9042C22.9819 24.1304 23.072 24.347 23.2316 24.5073C23.3912 24.6676 23.6075 24.7586 23.8337 24.7606Z" fill="#0A9642"/>
<path d="M30.9589 25.9937C30.7335 25.9992 30.5193 26.0929 30.3623 26.2547C30.2053 26.4164 30.118 26.6333 30.1192 26.8587C30.1203 27.0842 30.2098 27.3001 30.3685 27.4603C30.5271 27.6204 30.7422 27.712 30.9676 27.7152C31.193 27.7097 31.4072 27.6159 31.5642 27.4542C31.7212 27.2924 31.8085 27.0756 31.8074 26.8501C31.8062 26.6247 31.7167 26.4087 31.558 26.2486C31.3994 26.0885 31.1843 25.9969 30.9589 25.9937Z" fill="#0A9642"/>
<path d="M38.1013 24.7606C38.3274 24.7563 38.5428 24.663 38.7007 24.5012C38.8587 24.3393 38.9466 24.1217 38.9455 23.8955C38.9443 23.6693 38.8542 23.4527 38.6946 23.2924C38.535 23.1321 38.3187 23.0411 38.0925 23.0391C37.8664 23.0434 37.651 23.1367 37.493 23.2985C37.3351 23.4604 37.2471 23.678 37.2483 23.9042C37.2495 24.1304 37.3396 24.347 37.4992 24.5073C37.6588 24.6676 37.8751 24.7586 38.1013 24.7606Z" fill="#0A9642"/>
<path d="M41.0566 17.6264C41.2828 17.622 41.4981 17.5288 41.6561 17.3669C41.814 17.205 41.902 16.9874 41.9008 16.7612C41.8997 16.5351 41.8095 16.3184 41.6499 16.1581C41.4903 15.9979 41.274 15.9069 41.0478 15.9048C40.8217 15.9092 40.6063 16.0024 40.4484 16.1643C40.2904 16.3261 40.2025 16.5437 40.2036 16.7699C40.2048 16.9961 40.2949 17.2127 40.4545 17.373C40.6141 17.5333 40.8304 17.6243 41.0566 17.6264Z" fill="#0A9642"/>
<path d="M38.1013 10.4931C38.3274 10.4887 38.5428 10.3955 38.7007 10.2336C38.8587 10.0717 38.9466 9.85414 38.9455 9.62795C38.9443 9.40176 38.8542 9.18511 38.6946 9.02484C38.535 8.86457 38.3187 8.77356 38.0925 8.77148C37.8664 8.77586 37.651 8.86907 37.493 9.03096C37.3351 9.19285 37.2471 9.41041 37.2483 9.6366C37.2495 9.86279 37.3396 10.0794 37.4992 10.2397C37.6588 10.4 37.8751 10.491 38.1013 10.4931Z" fill="#0A9642"/>
</svg>
