<svg width="65" height="65" viewBox="0 0 65 65" fill="none" xmlns="http://www.w3.org/2000/svg">
<path d="M21.8637 27.379H21.4698C15.5607 27.379 10.9319 22.7502 10.9319 16.8411C10.9319 10.932 15.5607 6.30322 21.4698 6.30322C27.3789 6.30322 32.0076 10.932 32.0076 16.8411V17.235C32.0076 17.826 31.6137 18.2199 31.0228 18.2199C30.4319 18.2199 30.0379 17.826 30.0379 17.235V16.8411C30.0379 12.0153 26.2955 8.27292 21.4698 8.27292C16.644 8.27292 12.9016 12.0153 12.9016 16.8411C12.9016 21.6669 16.644 25.4093 21.4698 25.4093H21.8637C22.4546 25.4093 22.8486 25.8032 22.8486 26.3941C22.8486 26.985 22.4546 27.379 21.8637 27.379Z" fill="#0A9642"/>
<path d="M21.4697 4.33335C20.8788 4.33335 20.4849 3.93941 20.4849 3.3485V1.96971C20.4849 1.3788 20.8788 0.984863 21.4697 0.984863C22.0606 0.984863 22.4546 1.3788 22.4546 1.96971V3.3485C22.4546 3.93941 22.0606 4.33335 21.4697 4.33335Z" fill="#0A9642"/>
<path d="M7.8788 17.8257H6.5985C6.00759 17.8257 5.61365 17.4317 5.61365 16.8408C5.61365 16.2499 6.00759 15.856 6.5985 15.856H7.8788C8.46971 15.856 8.86365 16.2499 8.86365 16.8408C8.86365 17.4317 8.46971 17.8257 7.8788 17.8257Z" fill="#0A9642"/>
<path d="M11.8182 8.27267C11.5228 8.27267 11.3258 8.17418 11.1288 7.97721L10.2425 6.99236C9.84854 6.59842 9.84854 5.90903 10.2425 5.61357C10.6364 5.21964 11.2273 5.31812 11.6213 5.71206L12.5076 6.69691C12.9016 7.09085 12.8031 7.68176 12.4091 8.0757C12.3107 8.17418 12.0152 8.27267 11.8182 8.27267Z" fill="#0A9642"/>
<path d="M31.1213 27.4774C30.8258 27.4774 30.6289 27.3789 30.4319 27.1819L30.3334 27.0834C29.9395 26.6895 29.9395 26.0986 30.3334 25.7046C30.7274 25.3107 31.3183 25.3107 31.7122 25.7046L31.8107 25.8031C32.2046 26.1971 32.2046 26.788 31.8107 27.1819C31.6137 27.3789 31.4168 27.4774 31.1213 27.4774Z" fill="#0A9642"/>
<path d="M10.9318 28.3637C10.7349 28.3637 10.4394 28.2652 10.2424 28.0682C9.8485 27.6743 9.8485 27.0834 10.144 26.6894L11.0303 25.7046C11.4243 25.3107 12.0152 25.3107 12.4091 25.6061C12.803 26.0001 12.803 26.591 12.5076 26.9849L11.6212 27.9697C11.4243 28.2652 11.2273 28.3637 10.9318 28.3637Z" fill="#0A9642"/>
<path d="M31.0228 8.27287C30.8258 8.27287 30.5303 8.17438 30.3334 7.97741C29.9394 7.58347 29.9394 6.99256 30.2349 6.59862L31.1213 5.61378C31.5152 5.21984 32.1061 5.21984 32.5 5.51529C32.894 5.90923 32.894 6.50014 32.5985 6.89408L31.7122 7.87893C31.5152 8.17438 31.3182 8.27287 31.0228 8.27287Z" fill="#0A9642"/>
<path d="M61.2576 52.5909H19.5C19.2045 52.5909 18.9091 52.4924 18.8106 52.2955C18.7121 52.0985 18.5151 51.803 18.5151 51.5076L21.7651 17.1364C21.7651 16.6439 22.2576 16.25 22.75 16.25H58.106C58.5985 16.25 58.9924 16.6439 59.0909 17.1364L62.2424 51.5076C62.2424 51.803 62.1439 52.0985 61.947 52.2955C61.75 52.4924 61.553 52.5909 61.2576 52.5909ZM20.5833 50.6212H60.1742L57.2197 18.2197H23.6363L20.5833 50.6212Z" fill="#0A9642"/>
<path d="M29.9394 52.591C29.3485 52.591 28.9546 52.0985 28.9546 51.6061L30.5303 17.9243C30.5303 17.3334 31.0228 16.9395 31.5152 16.9395C32.1061 16.9395 32.5 17.4319 32.5 17.9243L30.9243 51.6061C30.9243 52.197 30.4319 52.591 29.9394 52.591Z" fill="#0A9642"/>
<path d="M40.3788 52.591C39.7879 52.591 39.3939 52.197 39.3939 51.6061V17.9243C39.3939 17.3334 39.7879 16.9395 40.3788 16.9395C40.9697 16.9395 41.3636 17.3334 41.3636 17.9243V51.6061C41.3636 52.197 40.9697 52.591 40.3788 52.591Z" fill="#0A9642"/>
<path d="M50.8182 52.591C50.3257 52.591 49.8333 52.197 49.8333 51.6061L48.2576 17.9243C48.2576 17.3334 48.6515 16.9395 49.2424 16.9395C49.8333 16.9395 50.2273 17.3334 50.2273 17.9243L51.803 51.6061C51.803 52.0985 51.4091 52.591 50.8182 52.591Z" fill="#0A9642"/>
<path d="M59.6818 35.2578H21.1742C20.5833 35.2578 20.1893 34.8638 20.1893 34.2729C20.1893 33.682 20.5833 33.2881 21.1742 33.2881H59.6818C60.2727 33.2881 60.6666 33.682 60.6666 34.2729C60.6666 34.8638 60.2727 35.2578 59.6818 35.2578Z" fill="#0A9642"/>
<path d="M58.894 26.6894H21.9621C21.3712 26.6894 20.9773 26.2955 20.9773 25.7046C20.9773 25.1137 21.3712 24.7197 21.9621 24.7197H58.894C59.4849 24.7197 59.8788 25.1137 59.8788 25.7046C59.8788 26.2955 59.4849 26.6894 58.894 26.6894Z" fill="#0A9642"/>
<path d="M60.4697 43.7275H20.3863C19.7954 43.7275 19.4015 43.3336 19.4015 42.7427C19.4015 42.1518 19.7954 41.7578 20.3863 41.7578H60.4697C61.0606 41.7578 61.4545 42.1518 61.4545 42.7427C61.4545 43.3336 61.0606 43.7275 60.4697 43.7275Z" fill="#0A9642"/>
<path d="M40.3788 59.288C39.7879 59.288 39.3939 58.894 39.3939 58.3031V52.394C39.3939 51.8031 39.7879 51.4092 40.3788 51.4092C40.9697 51.4092 41.3636 51.8031 41.3636 52.394V58.3031C41.3636 58.894 40.9697 59.288 40.3788 59.288Z" fill="#0A9642"/>
<path d="M54.7576 64.0153H27.2803C26.8864 64.0153 26.4925 63.8184 26.394 63.4244C26.2955 63.0305 26.2955 62.6365 26.591 62.3411L31.3182 57.6138C31.5152 57.4168 31.7122 57.3184 32.0076 57.3184H48.75C48.947 57.3184 49.144 57.4168 49.341 57.5153L55.3485 62.2426C55.644 62.5381 55.841 62.932 55.644 63.3259C55.5455 63.7199 55.1516 64.0153 54.7576 64.0153ZM29.644 62.0456H51.9016L48.3561 59.2881H32.4016L29.644 62.0456Z" fill="#0A9642"/>
<path d="M7.87878 52.0002C5.02272 52.0002 2.75757 49.7351 2.75757 46.879V42.7427C2.75757 42.1518 3.15151 41.7578 3.74242 41.7578H12.0151C12.6061 41.7578 13 42.1518 13 42.7427V46.879C13 49.7351 10.7348 52.0002 7.87878 52.0002ZM4.72727 43.7275V46.879C4.72727 48.5533 6.20454 50.0305 7.87878 50.0305C9.65151 50.0305 11.0303 48.6517 11.0303 46.879V43.7275H4.72727Z" fill="#0A9642"/>
<path d="M5.90904 43.7273C5.31813 43.7273 4.92419 43.3334 4.92419 42.7425V38.7046C4.92419 38.1137 5.31813 37.7197 5.90904 37.7197C6.49995 37.7197 6.89389 38.1137 6.89389 38.7046V42.7425C6.89389 43.3334 6.49995 43.7273 5.90904 43.7273Z" fill="#0A9642"/>
<path d="M9.8485 43.7273C9.25759 43.7273 8.86365 43.3334 8.86365 42.7425V38.7046C8.86365 38.1137 9.25759 37.7197 9.8485 37.7197C10.4394 37.7197 10.8333 38.1137 10.8333 38.7046V42.7425C10.8333 43.3334 10.4394 43.7273 9.8485 43.7273Z" fill="#0A9642"/>
<path d="M15.1666 61.6516C10.7348 61.6516 7.18933 58.1062 7.18933 53.6744V51.1138C7.18933 50.5228 7.58327 50.1289 8.17418 50.1289C8.76509 50.1289 9.15903 50.5228 9.15903 51.1138V53.6744C9.15903 57.0228 11.8181 59.6819 15.1666 59.6819C18.5151 59.6819 21.1742 57.0228 21.1742 53.6744V51.6062C21.1742 51.0153 21.5681 50.6213 22.159 50.6213C22.7499 50.6213 23.1439 51.0153 23.1439 51.6062V53.6744C23.1439 58.1062 19.5984 61.6516 15.1666 61.6516Z" fill="#0A9642"/>
</svg>
