<svg width="60" height="60" viewBox="0 0 60 60" fill="none" xmlns="http://www.w3.org/2000/svg">
<g clip-path="url(#clip0_20_410)">
<path d="M46.9975 5C42.5792 5 38.9975 8.58175 38.9975 13C39.0025 17.4163 42.5812 20.995 46.9975 21C51.4157 21 54.9975 17.4183 54.9975 13C54.9975 8.58175 51.4157 5 46.9975 5ZM46.9975 19C43.6837 19 40.9975 16.3138 40.9975 13C41.0007 9.68762 43.6851 7.00325 46.9975 7C50.3112 7 52.9975 9.68625 52.9975 13C52.9975 16.3138 50.3112 19 46.9975 19Z" fill="#0A9642"/>
<path d="M47.9975 0H45.9975V3H47.9975V0Z" fill="#0A9642"/>
<path d="M47.9975 23H45.9975V26H47.9975V23Z" fill="#0A9642"/>
<path d="M36.9975 12H33.9975V14H36.9975V12Z" fill="#0A9642"/>
<path d="M59.9975 12H56.9975V14H59.9975V12Z" fill="#0A9642"/>
<path d="M38.5112 3.10045L37.097 4.51465L39.2183 6.63595L40.6325 5.22175L38.5112 3.10045Z" fill="#0A9642"/>
<path d="M54.7744 19.3622L53.3602 20.7764L55.4815 22.8977L56.8957 21.4835L54.7744 19.3622Z" fill="#0A9642"/>
<path d="M39.2187 19.3611L37.0974 21.4824L38.5116 22.8966L40.6329 20.7753L39.2187 19.3611Z" fill="#0A9642"/>
<path d="M55.4827 3.10038L53.3614 5.22168L54.7756 6.63588L56.8969 4.51458L55.4827 3.10038Z" fill="#0A9642"/>
<path d="M53.8755 58.521L29.8755 14.521C29.7003 14.1997 29.3635 13.9999 28.9975 14H0.997503C0.922378 14.0016 0.847628 14.0113 0.774503 14.029C0.766503 14.029 0.758503 14.029 0.750503 14.029C0.653003 14.0551 0.560253 14.0963 0.475503 14.151C0.450503 14.1675 0.426378 14.1856 0.403503 14.205C0.321003 14.2676 0.248128 14.342 0.187503 14.426C0.173503 14.447 0.154503 14.464 0.141503 14.486C0.120253 14.5265 0.102128 14.5686 0.0875027 14.612C0.0743777 14.638 0.0627527 14.6648 0.0525027 14.692C0.0206277 14.7889 0.00375272 14.89 0.00250272 14.992V22C0.00237772 22.1661 0.0436277 22.3298 0.122503 22.476L20.1175 59.476C20.2924 59.799 20.6303 60.0003 20.9975 60H52.9975C53.5498 60.0001 53.9976 59.5525 53.9976 59.0001C53.9978 58.8328 53.9558 58.668 53.8755 58.521ZM45.3125 47H38.5915L33.6825 38H40.4035L45.3125 47ZM21.3125 36H13.5915L8.6825 27H16.4035L21.3125 36ZM18.6825 27H25.4035L30.3125 36H23.5915L18.6825 27ZM22.4035 38L27.3125 47H19.5915L14.6825 38H22.4035ZM24.6825 38H31.4035L36.3125 47H29.5915L24.6825 38ZM39.3125 36H32.5915L27.6825 27H34.4035L39.3125 36ZM28.4035 16L33.3125 25H26.5915L21.6825 16H28.4035ZM19.4035 16L24.3125 25H17.5915L12.6825 16H19.4035ZM10.4035 16L15.3125 25H7.5915L2.6825 16H10.4035ZM21.5975 58L1.9975 21.747V18.922L23.3125 58H21.5975ZM25.5915 58L20.6825 49H28.4035L33.3125 58H25.5915ZM35.5915 58L30.6825 49H37.4035L42.3125 58H35.5915ZM44.5915 58L39.6825 49H46.4035L51.3125 58H44.5915Z" fill="#0A9642"/>
</g>
<defs>
<clipPath id="clip0_20_410">
<rect width="60" height="60" fill="white"/>
</clipPath>
</defs>
</svg>
