<svg width="68" height="68" viewBox="0 0 68 68" fill="none" xmlns="http://www.w3.org/2000/svg">
<path d="M29.5388 64.8991H26.9115V62.9415C26.9115 62.1482 26.2624 61.4991 25.4691 61.4991H24.0885V58.4803H35.2673C35.803 58.4803 36.2976 58.2124 36.586 57.7591C36.8745 57.3057 36.9157 56.7494 36.6994 56.2651L31.0327 43.6748C30.7854 43.1185 30.2188 42.7476 29.6006 42.7476H8.51029C7.8921 42.7476 7.33574 43.1082 7.07816 43.6748L1.4115 56.2651C1.19513 56.7494 1.23634 57.3057 1.52483 57.7591C1.81331 58.2124 2.30786 58.4803 2.84362 58.4803H14.0224V61.4991H12.6418C11.8485 61.4991 11.1994 62.1482 11.1994 62.9415V64.8991H8.58241C8.17028 64.8991 7.83028 65.2391 7.83028 65.6512C7.83028 66.0633 8.17028 66.4033 8.58241 66.4033H29.5388C29.9509 66.4033 30.2909 66.0633 30.2909 65.6512C30.2909 65.2391 29.9612 64.8991 29.5388 64.8991ZM35.3394 56.8833L35.2776 56.976H28.4363L27.7151 53.7718H33.9485L35.3394 56.8833ZM33.2685 52.2676H27.3751L26.623 48.95H31.7745L33.2685 52.2676ZM29.6109 44.2518C29.6418 44.2518 29.6624 44.2724 29.6727 44.293L31.0945 47.456H26.283L25.5618 44.2518H29.6109ZM19.8127 44.2518H24.0266L24.7479 47.456H19.8127V44.2518ZM19.8127 48.9603H25.0879L25.84 52.2779H19.823V48.9603H19.8127ZM19.8127 53.7718H26.1697L26.8909 56.976H19.8024V53.7718H19.8127ZM22.5945 58.4803V61.4991H15.5266V58.4803H22.5945ZM14.1048 44.2518H18.3188V47.456H13.3836L14.1048 44.2518ZM18.3085 48.9603V52.2779H12.2915L13.0436 48.9603H18.3085ZM8.51029 44.2518H12.5594L11.8382 47.456H7.05756L8.51029 44.2518ZM9.69513 56.976H2.84362L2.7818 56.8833L4.19331 53.7718H10.4163L9.69513 56.976ZM4.87331 52.2676L6.37756 48.95H11.4982L10.746 52.2676H4.87331ZM11.2303 56.976L11.9515 53.7718H18.3085V56.976H11.2303ZM25.4176 64.8991H12.6933L12.6521 62.993L25.4176 62.9415V64.8991Z" fill="#0A9642"/>
<path d="M63.2606 30.0643C62.8485 28.9928 61.9109 28.2407 60.8085 28.0861L50.2479 26.4995C50.2582 26.3861 50.2788 26.2728 50.2788 26.1595C50.2788 23.9649 48.9394 22.0795 47.0437 21.2758V2.88491C47.0437 2.32855 46.714 1.85461 46.1885 1.67946C45.6734 1.494 45.1273 1.65885 44.7873 2.08128L39.2649 8.90188C38.5643 9.77764 38.3685 10.9625 38.7806 12.0237L42.5206 21.5025C40.8413 22.3989 39.677 24.1401 39.677 26.1698C39.677 26.5716 39.7285 26.9528 39.8109 27.3237L23.8413 36.5449C23.3673 36.8128 23.1303 37.3382 23.2231 37.874C23.3261 38.4098 23.7382 38.8116 24.274 38.894L32.9388 40.2643C33.0934 40.2849 33.2582 40.2952 33.4128 40.2952C34.3606 40.2952 35.2776 39.8625 35.8752 39.1104L42.4794 30.8061C43.2316 31.2079 44.0764 31.4655 44.9831 31.4655C46.1988 31.4655 47.3013 31.0431 48.1976 30.3528L64.5897 39.8007C64.7958 39.914 65.0122 39.9758 65.2285 39.9758C65.5273 39.9758 65.8158 39.8728 66.0631 39.6564C66.4752 39.2958 66.6091 38.7498 66.4134 38.2552L63.2606 30.0643ZM40.1716 11.4673C39.9655 10.9213 40.0582 10.2928 40.4291 9.83946L45.5394 3.5237V20.9152C45.354 20.8946 45.1685 20.8534 44.9831 20.8534C44.6225 20.8534 44.2619 20.8946 43.9219 20.9564L40.1716 11.4673ZM34.7006 38.1831C34.3297 38.6467 33.7631 38.8734 33.1758 38.7807L25.16 37.5134L40.3673 28.7249C40.6146 29.1679 40.9031 29.5801 41.2637 29.9304L34.7006 38.1831ZM44.9831 29.9613C42.8813 29.9613 41.1813 28.251 41.1813 26.1595C41.1813 24.0576 42.8916 22.3576 44.9831 22.3576C47.0746 22.3576 48.7849 24.0679 48.7849 26.1595C48.7849 28.2613 47.0746 29.9613 44.9831 29.9613ZM49.2794 29.2401C49.5576 28.8588 49.774 28.4261 49.9388 27.9728L60.5922 29.5698C61.1588 29.6419 61.6431 30.0437 61.8491 30.6001L64.7649 38.1728L49.2794 29.2401Z" fill="#0A9642"/>
<path d="M54.6164 64.8987H52.5867L48.2182 33.1757C48.1667 32.7636 47.7855 32.4854 47.3734 32.5369C46.9612 32.5884 46.6728 32.9696 46.7346 33.3817L48.0946 43.2417H45.6321C45.22 43.2417 44.88 43.5817 44.88 43.9939C44.88 44.406 45.22 44.746 45.6321 44.746H48.3006L50.32 59.4072H45.8588C45.4467 59.4072 45.1067 59.7472 45.1067 60.1593C45.1067 60.5714 45.4467 60.9114 45.8588 60.9114H50.5261L51.0721 64.8987H39.0588L40.6455 53.349H44.9521C45.3643 53.349 45.7043 53.009 45.7043 52.5969C45.7043 52.1848 45.3643 51.8448 44.9521 51.8448H40.8515L43.3861 33.4436C43.4376 33.0314 43.1594 32.6502 42.7473 32.5987C42.3249 32.5472 41.954 32.8254 41.9024 33.2375L37.5443 64.8987H35.6176C35.2055 64.8987 34.8655 65.2387 34.8655 65.6508C34.8655 66.063 35.2055 66.403 35.6176 66.403H54.6061C55.0182 66.403 55.3582 66.063 55.3582 65.6508C55.3582 65.2387 55.0285 64.8987 54.6164 64.8987Z" fill="#0A9642"/>
<path d="M25.0363 17.237C25.4485 17.237 25.7885 16.897 25.7885 16.4849C25.7885 14.4243 27.4679 12.7449 29.5285 12.7449C31.5891 12.7449 33.2582 14.4243 33.2582 16.4849C33.2582 18.5455 31.5891 20.2146 29.5285 20.2146H12.6624C12.2503 20.2146 11.9103 20.5546 11.9103 20.9667C11.9103 21.3789 12.2503 21.7189 12.6624 21.7189H29.5285C32.4133 21.7189 34.7624 19.3698 34.7624 16.4849C34.7624 13.6001 32.4133 11.251 29.5285 11.251C26.6436 11.251 24.2945 13.6001 24.2945 16.4849C24.2842 16.9073 24.6139 17.237 25.0363 17.237Z" fill="#0A9642"/>
<path d="M3.72966 14.7335H16.5878C19.4727 14.7335 21.8218 12.3844 21.8218 9.49957C21.8218 6.61472 19.4727 4.26562 16.5878 4.26562C13.703 4.26562 11.3539 6.61472 11.3539 9.49957C11.3539 9.91169 11.6939 10.2517 12.106 10.2517C12.5181 10.2517 12.8581 9.91169 12.8581 9.49957C12.8581 7.43896 14.5375 5.75956 16.5981 5.75956C18.6588 5.75956 20.3278 7.43896 20.3278 9.49957C20.3278 11.5602 18.6588 13.2293 16.5981 13.2293H3.72966C3.31754 13.2293 2.97754 13.5693 2.97754 13.9814C2.98784 14.3935 3.31754 14.7335 3.72966 14.7335Z" fill="#0A9642"/>
<path d="M52.4218 14.7336H62.086C64.6412 14.7336 66.7121 12.6627 66.7121 10.1076C66.7121 7.5524 64.6412 5.47119 62.086 5.47119C59.5309 5.47119 57.4497 7.5524 57.4497 10.1076C57.4497 10.5197 57.7897 10.8597 58.2018 10.8597C58.6139 10.8597 58.9539 10.5197 58.9539 10.1076C58.9539 8.37665 60.3551 6.97543 62.086 6.97543C63.8066 6.97543 65.2079 8.37665 65.2079 10.1076C65.2079 11.8282 63.8066 13.2294 62.086 13.2294H52.4218C52.0097 13.2294 51.6697 13.5694 51.6697 13.9815C51.68 14.3936 52.0097 14.7336 52.4218 14.7336Z" fill="#0A9642"/>
<path d="M51.9375 20.1839H62.3333C62.7454 20.1839 63.0854 19.8439 63.0854 19.4318C63.0854 19.0197 62.7454 18.6797 62.3333 18.6797H51.9375C51.5254 18.6797 51.1854 19.0197 51.1854 19.4318C51.1854 19.8439 51.5151 20.1839 51.9375 20.1839Z" fill="#0A9642"/>
<path d="M5.8521 25.4072C5.43998 25.4072 5.09998 25.7472 5.09998 26.1593C5.09998 26.5715 5.43998 26.9115 5.8521 26.9115H19.9363C20.3485 26.9115 20.6885 26.5715 20.6885 26.1593C20.6885 25.7472 20.3485 25.4072 19.9363 25.4072H5.8521Z" fill="#0A9642"/>
</svg>
