<svg width="38" height="38" viewBox="0 0 38 38" fill="none" xmlns="http://www.w3.org/2000/svg">
<path d="M18.999 3.25998C19.4089 3.25998 19.7411 2.92771 19.7411 2.5178V0.742188C19.7411 0.332277 19.4089 0 18.999 0C18.5891 0 18.2568 0.332277 18.2568 0.742188V2.5178C18.2568 2.92771 18.5891 3.25998 18.999 3.25998Z" fill="white"/>
<path d="M26.8206 11.0781C26.8206 11.488 27.1528 11.8203 27.5627 11.8203H29.3412C29.7511 11.8203 30.0834 11.488 30.0834 11.0781C30.0834 10.6682 29.7511 10.3359 29.3412 10.3359H27.5627C27.1528 10.3359 26.8206 10.6682 26.8206 11.0781Z" fill="white"/>
<path d="M8.65881 11.8203H10.4352C10.8451 11.8203 11.1774 11.488 11.1774 11.0781C11.1774 10.6682 10.8451 10.3359 10.4352 10.3359H8.65881C8.2489 10.3359 7.91663 10.6682 7.91663 11.0781C7.91663 11.488 8.2489 11.8203 8.65881 11.8203Z" fill="white"/>
<path d="M25.054 5.76773C25.2439 5.76773 25.4339 5.69529 25.5788 5.55042L26.8352 4.29442C27.1251 4.00467 27.1252 3.53471 26.8354 3.24481C26.5456 2.95492 26.0756 2.95484 25.7857 3.24467L24.5293 4.50067C24.2394 4.79042 24.2393 5.26037 24.5291 5.55027C24.674 5.69529 24.864 5.76773 25.054 5.76773Z" fill="white"/>
<path d="M12.4191 5.55045C12.5641 5.69532 12.7539 5.76776 12.9439 5.76776C13.1339 5.76776 13.3239 5.69525 13.4687 5.5503C13.7586 5.2604 13.7584 4.79045 13.4686 4.5007L12.2121 3.24469C11.9222 2.95479 11.4523 2.95494 11.1625 3.24484C10.8727 3.53474 10.8729 4.00469 11.1627 4.29444L12.4191 5.55045Z" fill="white"/>
<path d="M36.0215 26.2181L34.5881 18.2478C34.5864 18.2381 34.585 18.2285 34.5829 18.219L33.8705 14.258C33.8069 13.9044 33.4993 13.6472 33.1401 13.6472H24.2805C24.6675 12.8528 24.8743 11.9745 24.8743 11.078C24.8743 7.84059 22.2386 5.20679 18.9989 5.20679C15.7603 5.20679 13.1256 7.84059 13.1256 11.078C13.1256 11.9741 13.3322 12.8524 13.7188 13.6472H4.85783C4.49854 13.6472 4.1909 13.9045 4.12737 14.2581L2.69947 22.2055C2.69732 22.2154 2.69584 22.2255 2.69405 22.2356L1.97851 26.2183C1.93962 26.4347 1.99863 26.6571 2.13964 26.8257C2.28066 26.9944 2.48914 27.0917 2.70897 27.0917H3.89677V27.9316C3.89677 29.212 4.9388 30.2538 6.21952 30.2538H8.39576C8.80567 30.2538 9.13795 29.9215 9.13795 29.5116C9.13795 29.1017 8.80567 28.7694 8.39576 28.7694H6.21952C5.75721 28.7694 5.38114 28.3936 5.38114 27.9316V27.0917H32.6188V27.9316C32.6188 28.3935 32.2428 28.7694 31.7805 28.7694H15.0632C14.6533 28.7694 14.321 29.1017 14.321 29.5116C14.321 29.9215 14.6533 30.2538 15.0632 30.2538H16.5036V33.2863H14.8949C13.5955 33.2863 12.5384 34.3431 12.5384 35.642V36.5155H9.31756C8.90765 36.5155 8.57537 36.8478 8.57537 37.2577C8.57537 37.6676 8.90765 37.9999 9.31756 37.9999H28.6824C29.0923 37.9999 29.4246 37.6676 29.4246 37.2577C29.4246 36.8478 29.0923 36.5155 28.6824 36.5155H25.4615V35.642C25.4615 34.343 24.4044 33.2862 23.1051 33.2862H21.4964V30.2537H31.7805C33.0613 30.2537 34.1032 29.212 34.1032 27.9315V27.0917H35.291C35.5108 27.0917 35.7193 26.9942 35.8603 26.8256C36.0014 26.657 36.0604 26.4345 36.0215 26.2181ZM17.9879 30.2537H20.012V33.2862H17.9879V30.2537ZM23.1051 34.7706C23.586 34.7706 23.9772 35.1615 23.9772 35.642V36.5155H14.0228V35.642C14.0228 35.1615 14.414 34.7706 14.8949 34.7706H23.1051ZM25.7727 21.6206H19.7411V19.1183H25.4271L25.7727 21.6206ZM24.8766 15.1316L25.2221 17.6339H19.7411V15.1316H24.8766ZM18.9989 6.69116C21.4202 6.69116 23.39 8.65915 23.39 11.078C23.39 12.0041 23.0957 12.9041 22.5566 13.6472H15.4419C14.9039 12.9033 14.61 12.0034 14.61 11.078C14.61 8.65915 16.5788 6.69116 18.9989 6.69116ZM10.1762 25.6073H3.59641L4.04595 23.105H10.5222L10.1762 25.6073ZM10.7275 21.6206H4.31269L4.76223 19.1183H11.0735L10.7275 21.6206ZM11.2787 17.6339H5.0289L5.47845 15.1316H11.6247L11.2787 17.6339ZM18.2568 25.6073H11.6747L12.0208 23.105H18.2568V25.6073ZM18.2568 21.6206H12.226L12.572 19.1183H18.2568V21.6206ZM18.2568 17.6339H12.7773L13.1233 15.1316H18.2568V17.6339ZM19.7411 25.6073V23.105H25.9777L26.3232 25.6073H19.7411ZM26.375 15.1316H32.5195L32.9694 17.6339H26.7206L26.375 15.1316ZM26.9256 19.1183H33.2364L33.6864 21.6206H27.2711L26.9256 19.1183ZM27.8217 25.6073L27.4761 23.105H33.9534L34.4034 25.6073H27.8217Z" fill="white"/>
<path d="M11.7316 30.2539C12.1415 30.2539 12.4727 29.9216 12.4727 29.5117C12.4727 29.1018 12.1394 28.7695 11.7295 28.7695C11.3196 28.7695 10.9873 29.1018 10.9873 29.5117C10.9873 29.9216 11.3196 30.2539 11.7295 30.2539H11.7316Z" fill="white"/>
</svg>
