<svg width="64" height="65" viewBox="0 0 64 65" fill="none" xmlns="http://www.w3.org/2000/svg">
<g clip-path="url(#clip0_61_1159)">
<path d="M32 53.8198C20.2368 53.8198 10.6665 44.2495 10.6665 32.4863C10.6665 20.7231 20.2368 11.1528 32 11.1528C43.7632 11.1528 53.3335 20.7231 53.3335 32.4863C53.3335 44.2495 43.7632 53.8198 32 53.8198ZM32 13.2861C21.4136 13.2861 12.7998 21.8999 12.7998 32.4863C12.7998 43.0728 21.4136 51.6865 32 51.6865C42.5864 51.6865 51.2002 43.0728 51.2002 32.4863C51.2002 21.8999 42.5864 13.2861 32 13.2861Z" fill="#0A9642"/>
<path d="M32 64.4863C31.4111 64.4863 30.9331 64.0083 30.9331 63.4194V57.0195C30.9331 56.4307 31.4111 55.9531 32 55.9531C32.5889 55.9531 33.0669 56.4307 33.0669 57.0195V63.4194C33.0669 64.0083 32.5889 64.4863 32 64.4863Z" fill="#0A9642"/>
<path d="M32 9.01953C31.4111 9.01953 30.9331 8.54199 30.9331 7.95312V1.55322C30.9331 0.964356 31.4111 0.486328 32 0.486328C32.5889 0.486328 33.0669 0.964356 33.0669 1.55322V7.95312C33.0669 8.54199 32.5889 9.01953 32 9.01953Z" fill="#0A9642"/>
<path d="M7.4668 33.5532H1.06689C0.478027 33.5532 0 33.0752 0 32.4863C0 31.8975 0.478027 31.4194 1.06689 31.4194H7.4668C8.05566 31.4194 8.5332 31.8975 8.5332 32.4863C8.5332 33.0752 8.05566 33.5532 7.4668 33.5532Z" fill="#0A9642"/>
<path d="M62.9331 33.5532H56.5332C55.9443 33.5532 55.4668 33.0752 55.4668 32.4863C55.4668 31.8975 55.9443 31.4194 56.5332 31.4194H62.9331C63.522 31.4194 64 31.8975 64 32.4863C64 33.0752 63.522 33.5532 62.9331 33.5532Z" fill="#0A9642"/>
<path d="M26.6665 48.4863C26.5025 48.4863 26.3369 48.4492 26.1836 48.3711C25.7471 48.1494 25.5181 47.6577 25.628 47.1797L28.5259 34.6196H23.4668C23.0484 34.6196 22.6699 34.3755 22.4961 33.9966C22.3223 33.6172 22.3863 33.1709 22.6602 32.8555L36.5269 16.8555C36.8482 16.4844 37.3804 16.3809 37.8164 16.6025C38.2539 16.8242 38.4834 17.3164 38.3721 17.794L35.4741 30.353H40.5332C40.9517 30.353 41.3301 30.5972 41.5039 30.9761C41.6778 31.3555 41.6138 31.8018 41.3399 32.1172L27.4732 48.1172C27.2652 48.3584 26.9688 48.4863 26.6665 48.4863ZM25.8028 32.4863H29.8667C30.1919 32.4863 30.4991 32.6348 30.7007 32.8887C30.9033 33.1421 30.9781 33.4751 30.9058 33.793L28.6709 43.4785L38.1973 32.4863H34.1333C33.8081 32.4863 33.501 32.3379 33.2984 32.084C33.0967 31.8306 33.021 31.4976 33.0933 31.1797L35.3291 21.4941L25.8028 32.4863Z" fill="#0A9642"/>
<path d="M53.8728 55.4263C53.5999 55.4263 53.3269 55.3213 53.1189 55.1138L48.594 50.5889C48.177 50.1719 48.177 49.4976 48.594 49.0806C49.011 48.6636 49.6853 48.6636 50.1023 49.0806L54.6272 53.6055C55.0442 54.0225 55.0442 54.6963 54.6272 55.1138C54.4192 55.3213 54.1458 55.4263 53.8728 55.4263Z" fill="#0A9642"/>
<path d="M14.6526 16.2046C14.3796 16.2046 14.1062 16.1001 13.8982 15.8921L9.37231 11.3672C8.95532 10.9502 8.95532 10.2764 9.37231 9.85889C9.78833 9.44189 10.4636 9.44189 10.8806 9.85889L15.4065 14.3838C15.824 14.8008 15.824 15.4751 15.4065 15.8921C15.1985 16.1011 14.9246 16.2046 14.6526 16.2046Z" fill="#0A9642"/>
<path d="M10.1267 55.4263C9.85376 55.4263 9.58032 55.3213 9.37231 55.1138C8.95532 54.6963 8.95532 54.0225 9.37231 53.6055L13.8982 49.0806C14.3157 48.6636 14.9905 48.6636 15.4065 49.0806C15.824 49.4976 15.824 50.1719 15.4065 50.5889L10.8806 55.1138C10.6726 55.3213 10.3997 55.4263 10.1267 55.4263Z" fill="#0A9642"/>
<path d="M49.3479 16.2046C49.075 16.2046 48.802 16.1001 48.594 15.8921C48.177 15.4751 48.177 14.8008 48.594 14.3838L53.1189 9.85889C53.5359 9.44189 54.2097 9.44189 54.6272 9.85889C55.0442 10.2764 55.0442 10.9502 54.6272 11.3672L50.1023 15.8921C49.8933 16.1011 49.6208 16.2046 49.3479 16.2046Z" fill="#0A9642"/>
</g>
<defs>
<clipPath id="clip0_61_1159">
<rect width="64" height="64" fill="white" transform="translate(0 0.486328)"/>
</clipPath>
</defs>
</svg>
