<svg width="64" height="64" viewBox="0 0 64 64" fill="none" xmlns="http://www.w3.org/2000/svg">
<path d="M50.6819 46.8618H6.39966C6.25359 46.8618 6.10922 46.8305 5.97625 46.7701C5.84327 46.7096 5.72476 46.6214 5.62868 46.5114C5.5326 46.4014 5.46117 46.2721 5.41919 46.1322C5.3772 45.9923 5.36564 45.845 5.38526 45.7002L9.18878 17.7022C9.22221 17.4568 9.34339 17.2319 9.52989 17.0691C9.7164 16.9062 9.95559 16.8165 10.2032 16.8164H46.8784C47.126 16.8165 47.3652 16.9062 47.5517 17.0691C47.7382 17.2319 47.8594 17.4568 47.8928 17.7022L51.6963 45.7002C51.7159 45.845 51.7044 45.9923 51.6624 46.1322C51.6204 46.2721 51.549 46.4014 51.4529 46.5114C51.3568 46.6214 51.2383 46.7096 51.1053 46.7701C50.9723 46.8305 50.828 46.8618 50.6819 46.8618ZM7.57214 44.8138H49.5094L45.9837 18.8644H11.0979L7.57214 44.8138Z" fill="#0A9642"/>
<path d="M41.8244 46.8615C41.5674 46.8613 41.32 46.7644 41.1311 46.5901C40.9422 46.4158 40.8258 46.1769 40.8049 45.9207L38.5227 17.9233C38.5006 17.6526 38.587 17.3842 38.7628 17.1771C38.9387 16.9701 39.1895 16.8414 39.4603 16.8193C39.731 16.7972 39.9994 16.8836 40.2065 17.0595C40.4135 17.2353 40.5422 17.4862 40.5643 17.7569L42.8465 45.7543C42.8575 45.8884 42.8419 46.0233 42.8007 46.1513C42.7595 46.2794 42.6935 46.3981 42.6064 46.5006C42.5194 46.6031 42.4129 46.6875 42.2933 46.7488C42.1736 46.8102 42.043 46.8474 41.9089 46.8583C41.8808 46.8603 41.8558 46.8615 41.8244 46.8615Z" fill="#0A9642"/>
<path d="M32.9686 46.8616C32.7018 46.8617 32.4454 46.7576 32.2541 46.5714C32.0628 46.3853 31.9518 46.1319 31.9446 45.8651L31.1849 17.8676C31.1813 17.7332 31.2042 17.5993 31.2522 17.4737C31.3003 17.348 31.3727 17.2331 31.4652 17.1354C31.5577 17.0377 31.6685 16.9592 31.7914 16.9044C31.9142 16.8496 32.0466 16.8195 32.1811 16.8158C32.3156 16.8122 32.4495 16.835 32.5751 16.8831C32.7007 16.9312 32.8157 17.0035 32.9133 17.096C33.011 17.1885 33.0895 17.2994 33.1443 17.4222C33.1992 17.5451 33.2293 17.6775 33.233 17.812L33.9939 45.8094C33.9976 45.9438 33.9747 46.0777 33.9267 46.2033C33.8786 46.3289 33.8063 46.4438 33.7138 46.5414C33.6213 46.6391 33.5105 46.7176 33.3877 46.7724C33.2649 46.8272 33.1325 46.8573 32.9981 46.8609L32.9686 46.8616Z" fill="#0A9642"/>
<path d="M24.113 46.8619H24.0848C23.9504 46.8583 23.818 46.8282 23.6952 46.7733C23.5724 46.7185 23.4616 46.6401 23.3691 46.5424C23.2767 46.4448 23.2043 46.3299 23.1563 46.2043C23.1082 46.0787 23.0853 45.9448 23.089 45.8104L23.85 17.8129C23.8573 17.5414 23.9723 17.2838 24.1696 17.097C24.3668 16.9102 24.6302 16.8094 24.9018 16.8168C25.1734 16.8242 25.4309 16.9391 25.6177 17.1364C25.8045 17.3337 25.9053 17.597 25.898 17.8686L25.1364 45.8654C25.1292 46.1321 25.0182 46.3854 24.8271 46.5716C24.636 46.7577 24.3798 46.8618 24.113 46.8619Z" fill="#0A9642"/>
<path d="M15.2574 46.8618C15.2293 46.8618 15.2011 46.8618 15.1729 46.8586C15.0389 46.8477 14.9083 46.8104 14.7886 46.7491C14.6689 46.6877 14.5625 46.6033 14.4754 46.5008C14.3884 46.3983 14.3223 46.2796 14.2811 46.1516C14.24 46.0235 14.2244 45.8886 14.2353 45.7546L16.5182 17.7571C16.5271 17.6215 16.5628 17.4891 16.6234 17.3674C16.6839 17.2458 16.7681 17.1375 16.8709 17.0487C16.9738 16.9599 17.0932 16.8925 17.2224 16.8503C17.3516 16.8082 17.4878 16.7922 17.6233 16.8032C17.7587 16.8142 17.8905 16.8521 18.0112 16.9146C18.1318 16.9771 18.2388 17.063 18.3259 17.1673C18.413 17.2716 18.4785 17.3921 18.5185 17.522C18.5586 17.6518 18.5724 17.7883 18.5592 17.9235L16.2769 45.921C16.2561 46.1771 16.1396 46.416 15.9508 46.5903C15.7619 46.7646 15.5144 46.8615 15.2574 46.8618Z" fill="#0A9642"/>
<path d="M49.5901 38.8273H7.49153C7.21995 38.8273 6.95949 38.7194 6.76745 38.5274C6.57541 38.3353 6.46753 38.0749 6.46753 37.8033C6.46753 37.5317 6.57541 37.2713 6.76745 37.0792C6.95949 36.8872 7.21995 36.7793 7.49153 36.7793H49.5901C49.8617 36.7793 50.1221 36.8872 50.3142 37.0792C50.5062 37.2713 50.6141 37.5317 50.6141 37.8033C50.6141 38.0749 50.5062 38.3353 50.3142 38.5274C50.1221 38.7194 49.8617 38.8273 49.5901 38.8273Z" fill="#0A9642"/>
<path d="M48.6013 31.5509H8.4803C8.20872 31.5509 7.94826 31.443 7.75622 31.251C7.56418 31.059 7.4563 30.7985 7.4563 30.5269C7.4563 30.2553 7.56418 29.9949 7.75622 29.8029C7.94826 29.6108 8.20872 29.5029 8.4803 29.5029H48.6013C48.8728 29.5029 49.1333 29.6108 49.3253 29.8029C49.5174 29.9949 49.6253 30.2553 49.6253 30.5269C49.6253 30.7985 49.5174 31.059 49.3253 31.251C49.1333 31.443 48.8728 31.5509 48.6013 31.5509Z" fill="#0A9642"/>
<path d="M47.7009 24.921H9.38093C9.10935 24.921 8.84889 24.8132 8.65686 24.6211C8.46482 24.4291 8.35693 24.1686 8.35693 23.897C8.35693 23.6255 8.46482 23.365 8.65686 23.173C8.84889 22.9809 9.10935 22.873 9.38093 22.873H47.7009C47.9725 22.873 48.233 22.9809 48.425 23.173C48.6171 23.365 48.7249 23.6255 48.7249 23.897C48.7249 24.1686 48.6171 24.4291 48.425 24.6211C48.233 24.8132 47.9725 24.921 47.7009 24.921Z" fill="#0A9642"/>
<path d="M37.9518 57.093H19.1307C18.8591 57.093 18.5986 56.9851 18.4066 56.7931C18.2146 56.601 18.1067 56.3406 18.1067 56.069V52.2232C18.1067 51.9517 18.2146 51.6912 18.4066 51.4992C18.5986 51.3071 18.8591 51.1992 19.1307 51.1992H25.2862V45.838C25.2862 45.5664 25.3941 45.3059 25.5861 45.1139C25.7782 44.9219 26.0386 44.814 26.3102 44.814H30.7716C31.0432 44.814 31.3037 44.9219 31.4957 45.1139C31.6878 45.3059 31.7956 45.5664 31.7956 45.838V51.1992H37.9518C38.2234 51.1992 38.4839 51.3071 38.6759 51.4992C38.8679 51.6912 38.9758 51.9517 38.9758 52.2232V56.0677C38.976 56.2023 38.9496 56.3356 38.8982 56.46C38.8468 56.5844 38.7714 56.6974 38.6763 56.7926C38.5812 56.8879 38.4683 56.9634 38.344 57.0149C38.2197 57.0665 38.0864 57.093 37.9518 57.093ZM20.1553 55.045H36.9278V53.2472H30.7716C30.5001 53.2472 30.2396 53.1394 30.0476 52.9473C29.8555 52.7553 29.7476 52.4948 29.7476 52.2232V46.862H27.3342V52.2232C27.3342 52.4948 27.2263 52.7553 27.0343 52.9473C26.8422 53.1394 26.5818 53.2472 26.3102 53.2472H20.1547L20.1553 55.045Z" fill="#0A9642"/>
<path d="M47.7477 25.2696C47.5004 25.2702 47.2613 25.1812 47.0745 25.0192C46.8877 24.8571 46.7659 24.633 46.7315 24.3881C46.6971 24.1432 46.7524 23.8942 46.8873 23.6869C47.0223 23.4797 47.2276 23.3283 47.4655 23.2607C48.1689 23.0577 48.8071 22.6743 49.3166 22.1485C49.8261 21.6227 50.1892 20.9727 50.3698 20.2632C50.5505 19.5537 50.5424 18.8093 50.3465 18.1038C50.1505 17.3984 49.7734 16.7564 49.2527 16.2418C48.7319 15.7271 48.0856 15.3576 47.3779 15.1699C46.6702 14.9822 45.9257 14.9829 45.2184 15.1719C44.511 15.3609 43.8654 15.7316 43.3456 16.2472C42.8258 16.7628 42.4499 17.4054 42.2552 18.1112C42.1833 18.3731 42.0103 18.5958 41.7743 18.7301C41.5383 18.8645 41.2586 18.8996 40.9967 18.8277C40.7347 18.7558 40.5121 18.5828 40.3778 18.3468C40.2434 18.1108 40.2083 17.8311 40.2802 17.5692C40.5694 16.5185 41.1284 15.5618 41.9018 14.794C42.6751 14.0262 43.6359 13.4741 44.6886 13.1926C45.7414 12.911 46.8495 12.9098 47.9029 13.1889C48.9562 13.4681 49.9182 14.018 50.6933 14.784C51.4684 15.55 52.0296 16.5055 52.3212 17.5555C52.6128 18.6055 52.6246 19.7135 52.3555 20.7695C52.0864 21.8255 51.5457 22.7927 50.7871 23.5751C50.0285 24.3575 49.0784 24.9277 48.0312 25.2293C47.939 25.2558 47.8436 25.2694 47.7477 25.2696Z" fill="#0A9642"/>
<path d="M46.3026 11.4979C46.031 11.4979 45.7705 11.39 45.5785 11.198C45.3865 11.006 45.2786 10.7455 45.2786 10.4739V7.92927C45.2786 7.65769 45.3865 7.39723 45.5785 7.2052C45.7705 7.01316 46.031 6.90527 46.3026 6.90527C46.5741 6.90527 46.8346 7.01316 47.0266 7.2052C47.2187 7.39723 47.3266 7.65769 47.3266 7.92927V10.4739C47.3266 10.7455 47.2187 11.006 47.0266 11.198C46.8346 11.39 46.5741 11.4979 46.3026 11.4979Z" fill="#0A9642"/>
<path d="M40.1137 14.0615C39.979 14.0614 39.8457 14.0346 39.7214 13.9826C39.5972 13.9307 39.4845 13.8546 39.3898 13.7588L37.5901 11.9598C37.4912 11.8655 37.4121 11.7523 37.3576 11.627C37.303 11.5017 37.2741 11.3667 37.2725 11.2301C37.271 11.0934 37.2968 10.9578 37.3484 10.8313C37.4001 10.7047 37.4766 10.5898 37.5733 10.4933C37.6701 10.3968 37.7852 10.3206 37.9119 10.2693C38.0386 10.218 38.1742 10.1925 38.3109 10.1944C38.4476 10.1964 38.5825 10.2256 38.7076 10.2805C38.8328 10.3354 38.9457 10.4148 39.0398 10.514L40.8394 12.313C40.9828 12.4562 41.0805 12.6388 41.12 12.8375C41.1596 13.0363 41.1393 13.2423 41.0618 13.4295C40.9842 13.6167 40.8528 13.7767 40.6843 13.8892C40.5157 14.0017 40.3176 14.0617 40.115 14.0615H40.1137Z" fill="#0A9642"/>
<path d="M54.2909 28.2392C54.0195 28.2389 53.7594 28.131 53.5677 27.9391L51.768 26.1394C51.5759 25.9473 51.468 25.6868 51.468 25.4152C51.468 25.1436 51.5759 24.8831 51.768 24.6911C51.96 24.499 52.2205 24.3911 52.4921 24.3911C52.7637 24.3911 53.0242 24.499 53.2163 24.6911L55.0153 26.4908C55.1587 26.6339 55.2563 26.8164 55.2959 27.0151C55.3355 27.2138 55.3153 27.4197 55.2378 27.6069C55.1603 27.7941 55.029 27.9541 54.8606 28.0666C54.6921 28.1792 54.4941 28.2393 54.2915 28.2392H54.2909Z" fill="#0A9642"/>
<path d="M57.5996 20.2506H55.055C54.7834 20.2506 54.523 20.1428 54.3309 19.9507C54.1389 19.7587 54.031 19.4982 54.031 19.2266C54.031 18.9551 54.1389 18.6946 54.3309 18.5026C54.523 18.3105 54.7834 18.2026 55.055 18.2026H57.5996C57.8712 18.2026 58.1317 18.3105 58.3237 18.5026C58.5158 18.6946 58.6236 18.9551 58.6236 19.2266C58.6236 19.4982 58.5158 19.7587 58.3237 19.9507C58.1317 20.1428 57.8712 20.2506 57.5996 20.2506Z" fill="#0A9642"/>
<path d="M52.4913 14.0616C52.2888 14.0615 52.091 14.0014 51.9226 13.8888C51.7543 13.7763 51.6232 13.6164 51.5457 13.4294C51.4682 13.2423 51.448 13.0365 51.4874 12.8379C51.5269 12.6393 51.6243 12.4569 51.7675 12.3137L53.5678 10.514C53.7614 10.3301 54.0192 10.2291 54.2862 10.2325C54.5532 10.2359 54.8083 10.3435 54.9972 10.5323C55.186 10.7212 55.2936 10.9763 55.297 11.2433C55.3004 11.5103 55.1994 11.7681 55.0155 11.9617L53.2158 13.7588C53.121 13.8547 53.0082 13.9307 52.8838 13.9827C52.7595 14.0347 52.6261 14.0615 52.4913 14.0616Z" fill="#0A9642"/>
</svg>
