<svg width="80" height="80" viewBox="0 0 80 80" fill="none" xmlns="http://www.w3.org/2000/svg">
<path d="M33.5216 29.7812L17.6983 20.6462C17.5082 20.5366 17.2927 20.4789 17.0733 20.4789C16.8539 20.4789 16.6383 20.5366 16.4483 20.6462L0.625 29.7812C0.434981 29.891 0.277187 30.0488 0.167476 30.2388C0.0577663 30.4288 5.79871e-06 30.6443 2.24684e-07 30.8638V49.1355C-0.000131393 49.355 0.057564 49.5707 0.167281 49.7609C0.276998 49.9511 0.434866 50.109 0.625 50.2188L16.4483 59.3542C16.6383 59.4639 16.8539 59.5217 17.0733 59.5217C17.2927 59.5217 17.5083 59.4639 17.6983 59.3542L33.5216 50.2188C33.7116 50.109 33.8694 49.9512 33.9791 49.7612C34.0888 49.5711 34.1466 49.3555 34.1466 49.1361V30.8644C34.1467 30.6449 34.089 30.4292 33.9792 30.239C33.8695 30.0489 33.7117 29.891 33.5216 29.7812ZM17.0733 23.1719L30.3966 30.8641L17.0733 38.5562L3.75 30.8644L17.0733 23.1719ZM2.5 33.0294L15.8233 40.7216V56.1061L2.5 48.4139V33.0294ZM18.3233 56.1061V40.7216L31.6466 33.0294V48.4139L18.3233 56.1061ZM56.2908 17.9811V1.25C56.2908 0.918479 56.4225 0.600537 56.6569 0.366117C56.8913 0.131696 57.2093 0 57.5408 0L75.6375 0C75.969 0 76.287 0.131696 76.5214 0.366117C76.7558 0.600537 76.8875 0.918479 76.8875 1.25C76.8875 1.58152 76.7558 1.89946 76.5214 2.13388C76.287 2.3683 75.969 2.5 75.6375 2.5H58.7908V16.7309H74.3875V10.992L70.9759 14.0881C70.7382 14.3039 70.4265 14.4199 70.1055 14.4121C69.7845 14.4043 69.4789 14.2733 69.2519 14.0463L65.705 10.4994C65.4729 10.2645 65.3432 9.9473 65.3442 9.6171C65.3452 9.28689 65.4768 8.97049 65.7103 8.73699C65.9438 8.50349 66.2601 8.37186 66.5903 8.37084C66.9205 8.36982 67.2377 8.4995 67.4727 8.73156L70.1773 11.4363L77.9097 4.41891C78.1552 4.19612 78.4792 4.08 78.8103 4.09607C79.1414 4.11214 79.4526 4.2591 79.6754 4.50461C79.8982 4.75012 80.0143 5.07408 79.9982 5.40521C79.9822 5.73634 79.8352 6.04753 79.5897 6.27031L76.8866 8.72344V17.9811C76.8866 18.3126 76.7549 18.6306 76.5204 18.865C76.286 19.0994 75.9681 19.2311 75.6366 19.2311H57.5408C57.3766 19.2311 57.2141 19.1988 57.0624 19.1359C56.9107 19.0731 56.7729 18.981 56.6568 18.8649C56.5408 18.7488 56.4487 18.611 56.3859 18.4593C56.3231 18.3077 56.2908 18.1453 56.2908 17.9811ZM79.6756 34.8894C79.8984 35.1349 80.0145 35.4588 79.9985 35.7899C79.9824 36.121 79.8355 36.4322 79.59 36.655L76.8869 39.1081C76.8869 39.1153 76.888 39.1223 76.888 39.1297V48.3641C76.888 48.6956 76.7563 49.0135 76.5219 49.2479C76.2874 49.4824 75.9695 49.6141 75.638 49.6141H57.5408C57.2093 49.6141 56.8913 49.4824 56.6569 49.2479C56.4225 49.0135 56.2908 48.6956 56.2908 48.3641V31.6345C56.2908 31.303 56.4225 30.9851 56.6569 30.7506C56.8913 30.5162 57.2093 30.3845 57.5408 30.3845H75.6375C75.969 30.3845 76.287 30.5162 76.5214 30.7506C76.7558 30.9851 76.8875 31.303 76.8875 31.6345C76.8875 31.9661 76.7558 32.284 76.5214 32.5184C76.287 32.7528 75.969 32.8845 75.6375 32.8845H58.7908V47.1155H74.3875V41.3766L70.9759 44.4727C70.7382 44.6884 70.4265 44.8044 70.1055 44.7967C69.7845 44.7889 69.4789 44.6578 69.2519 44.4308L65.705 40.8839C65.4729 40.649 65.3432 40.3318 65.3442 40.0016C65.3452 39.6714 65.4768 39.355 65.7103 39.1215C65.9438 38.888 66.2601 38.7564 66.5903 38.7554C66.9205 38.7544 67.2377 38.884 67.4727 39.1161L70.1773 41.8208L77.9097 34.8034C78.0313 34.6931 78.1734 34.6078 78.328 34.5524C78.4825 34.497 78.6465 34.4726 78.8105 34.4806C78.9744 34.4886 79.1353 34.5288 79.2837 34.5989C79.4322 34.6691 79.5653 34.7678 79.6756 34.8894ZM79.6756 65.2738C79.8984 65.5192 80.0145 65.8432 79.9985 66.1743C79.9824 66.5054 79.8355 66.8166 79.59 67.0394L76.8869 69.4925V78.75C76.8869 79.0815 76.7552 79.3995 76.5208 79.6339C76.2863 79.8683 75.9684 80 75.6369 80H57.5408C57.2093 80 56.8913 79.8683 56.6569 79.6339C56.4225 79.3995 56.2908 79.0815 56.2908 78.75V62.0189C56.2908 61.6874 56.4225 61.3694 56.6569 61.135C56.8913 60.9006 57.2093 60.7689 57.5408 60.7689H75.6375C75.969 60.7689 76.287 60.9006 76.5214 61.135C76.7558 61.3694 76.8875 61.6874 76.8875 62.0189C76.8875 62.3504 76.7558 62.6684 76.5214 62.9028C76.287 63.1372 75.969 63.2689 75.6375 63.2689H58.7908V77.5H74.3875V71.7611L70.9759 74.857C70.7382 75.0728 70.4265 75.1889 70.1056 75.1811C69.7846 75.1733 69.4789 75.0424 69.2519 74.8153L65.705 71.2684C65.5868 71.1528 65.4927 71.015 65.4281 70.8627C65.3636 70.7105 65.3299 70.547 65.329 70.3817C65.328 70.2164 65.3599 70.0525 65.4228 69.8996C65.4856 69.7467 65.5781 69.6077 65.6951 69.4908C65.812 69.3739 65.9509 69.2814 66.1038 69.2185C66.2567 69.1557 66.4206 69.1238 66.5859 69.1247C66.7513 69.1257 66.9148 69.1594 67.067 69.2239C67.2192 69.2885 67.3571 69.3826 67.4727 69.5008L70.1773 72.2053L77.9097 65.1881C78.0312 65.0778 78.1734 64.9924 78.3279 64.937C78.4825 64.8816 78.6464 64.8572 78.8104 64.8651C78.9744 64.8731 79.1352 64.9133 79.2837 64.9834C79.4321 65.0535 79.5653 65.1522 79.6756 65.2738ZM45.9844 41.25V69.1341H51.1562C51.4878 69.1341 51.8057 69.2658 52.0401 69.5002C52.2746 69.7346 52.4062 70.0525 52.4062 70.3841C52.4062 70.7156 52.2746 71.0335 52.0401 71.2679C51.8057 71.5024 51.4878 71.6341 51.1562 71.6341H44.7344C44.4029 71.6341 44.0849 71.5024 43.8505 71.2679C43.6161 71.0335 43.4844 70.7156 43.4844 70.3841V41.25H40.4462C40.1147 41.25 39.7968 41.1183 39.5624 40.8839C39.3279 40.6495 39.1963 40.3315 39.1963 40C39.1963 39.6685 39.3279 39.3505 39.5624 39.1161C39.7968 38.8817 40.1147 38.75 40.4462 38.75H43.4844V9.61594C43.4844 9.28442 43.6161 8.96647 43.8505 8.73205C44.0849 8.49763 44.4029 8.36594 44.7344 8.36594H51.1562C51.4878 8.36594 51.8057 8.49763 52.0401 8.73205C52.2746 8.96647 52.4062 9.28442 52.4062 9.61594C52.4062 9.94746 52.2746 10.2654 52.0401 10.4998C51.8057 10.7342 51.4878 10.8659 51.1562 10.8659H45.9844V38.75H51.1562C51.4878 38.75 51.8057 38.8817 52.0401 39.1161C52.2746 39.3505 52.4062 39.6685 52.4062 40C52.4062 40.3315 52.2746 40.6495 52.0401 40.8839C51.8057 41.1183 51.4878 41.25 51.1562 41.25H45.9844Z" fill="#0A9642"/>
</svg>
