<svg width="50" height="50" viewBox="0 0 50 50" fill="none" xmlns="http://www.w3.org/2000/svg">
<g clip-path="url(#clip0_51_56)">
<path d="M25.6903 18.9355C25.5088 18.754 25.2568 18.6494 25 18.6494C24.7421 18.6494 24.4912 18.7539 24.3096 18.9355C24.1279 19.1172 24.0234 19.3683 24.0234 19.626C24.0234 19.8828 24.1278 20.1348 24.3096 20.3164C24.4912 20.4979 24.7432 20.6025 25 20.6025C25.2568 20.6025 25.5087 20.498 25.6903 20.3164C25.872 20.1348 25.9766 19.8828 25.9766 19.626C25.9766 19.3691 25.8721 19.1172 25.6903 18.9355Z" fill="white"/>
<path d="M29.3075 34.2002C29.126 34.0186 28.874 33.9141 28.6172 33.9141C28.3604 33.9141 28.1084 34.0186 27.9268 34.2002C27.7451 34.3817 27.6406 34.6337 27.6406 34.8906C27.6406 35.1475 27.745 35.3994 27.9268 35.5819C28.1084 35.7636 28.3604 35.8672 28.6172 35.8672C28.874 35.8672 29.126 35.7636 29.3075 35.5819C29.4892 35.3994 29.5938 35.1475 29.5938 34.8906C29.5938 34.6337 29.4893 34.3817 29.3075 34.2002Z" fill="white"/>
<path d="M7.03799 48.333C6.85645 48.1514 6.60449 48.0469 6.34766 48.0469C6.09082 48.0469 5.83887 48.1513 5.65723 48.333C5.47559 48.5147 5.37109 48.7666 5.37109 49.0234C5.37109 49.2803 5.47549 49.5322 5.65723 49.7138C5.83887 49.8955 6.09082 50 6.34766 50C6.60449 50 6.85645 49.8955 7.03799 49.7138C7.21973 49.5312 7.32422 49.2803 7.32422 49.0234C7.32422 48.7666 7.21973 48.5146 7.03799 48.333Z" fill="white"/>
<path d="M43.6522 48.0469H30.9965L30.0215 38.8669C29.9644 38.3305 29.4829 37.942 28.9472 37.9989C28.411 38.056 28.0223 38.5369 28.0792 39.0732L29.0325 48.0469H20.9674L21.2616 45.2774H24.9896C25.5288 45.2774 25.9662 44.8401 25.9662 44.3009C25.9662 43.7616 25.5288 43.3243 24.9896 43.3243H21.469L21.7631 40.5548H24.9896C25.5288 40.5548 25.9662 40.1175 25.9662 39.5782C25.9662 39.039 25.5288 38.6017 24.9896 38.6017H21.9706L22.2611 35.8673H24.9896C25.5288 35.8673 25.9662 35.43 25.9662 34.8907C25.9662 34.3515 25.5288 33.9142 24.9896 33.9142H22.4686L22.759 31.1798H24.9897C25.5289 31.1798 25.9662 30.7425 25.9662 30.2032C25.9662 29.664 25.5289 29.2267 24.9897 29.2267H22.9665L23.3927 25.2145L24.9998 24.6879L26.6072 25.2144L27.2067 30.8591C27.26 31.3605 27.6835 31.7326 28.1767 31.7326C28.2112 31.7326 28.2459 31.7308 28.2809 31.7271C28.8172 31.67 29.2059 31.1891 29.149 30.6528L28.6421 25.8808L40.8466 29.8783C40.9468 29.9112 41.0494 29.927 41.1504 29.927C41.4918 29.927 41.8181 29.7472 41.9962 29.4386C42.2272 29.0385 42.1462 28.5313 41.8023 28.223L29.3836 17.0948L25.9555 0.775879C25.8606 0.32373 25.4619 0 24.9998 0C24.5378 0 24.1392 0.323633 24.0442 0.775781L20.6161 17.0948L8.1974 28.2232C7.85346 28.5315 7.7724 29.0388 8.00346 29.4388C8.18168 29.7475 8.50785 29.9271 8.84926 29.9271C8.95033 29.9271 9.05287 29.9114 9.15307 29.8785L21.3577 25.881L19.0033 48.0469H11.2291C10.6899 48.0469 10.2526 48.4842 10.2526 49.0234C10.2526 49.5627 10.6899 50 11.2291 50H43.6522C44.1914 50 44.6287 49.5627 44.6287 49.0234C44.6287 48.4842 44.1915 48.0469 43.6522 48.0469ZM12.9628 26.5755L22.1497 18.3432C22.2313 18.27 22.2969 18.1858 22.348 18.0954C22.401 18.0058 22.4413 17.9064 22.4639 17.7988L24.9998 5.72676L27.5359 17.7988C27.5589 17.9088 27.6001 18.0103 27.655 18.1015C27.7056 18.1896 27.7703 18.2717 27.8501 18.3432L37.0369 26.5755L27.8083 23.5527C27.8022 23.5508 27.7962 23.5486 27.7901 23.5468L25.3141 22.7357C25.2101 22.7016 25.1044 22.6868 25.0006 22.6879C24.8963 22.6867 24.7903 22.7015 24.6856 22.7357L12.9628 26.5755Z" fill="white"/>
<path d="M18.5177 8.77229C18.1363 8.39104 17.5181 8.39104 17.1366 8.77229C16.7585 9.15051 16.2556 9.35881 15.7209 9.35881C15.186 9.35881 14.6832 9.15051 14.3051 8.77229C12.7628 7.2301 10.2536 7.2303 8.7113 8.77229C7.93064 9.55286 6.66042 9.55305 5.87976 8.77229C4.33748 7.2303 1.8283 7.2301 0.286011 8.77229C-0.0953369 9.15364 -0.0953369 9.772 0.286011 10.1534C0.667358 10.5347 1.28552 10.5347 1.66707 10.1534C2.04519 9.77522 2.54802 9.56692 3.08279 9.56692C3.61765 9.56692 4.12048 9.77522 4.49861 10.1534C6.04089 11.6956 8.55007 11.6954 10.0924 10.1534C10.873 9.37288 12.1432 9.37268 12.9239 10.1534C13.695 10.9245 14.708 11.3101 15.7209 11.3101C16.7337 11.3101 17.7466 10.9245 18.5177 10.1534C18.8991 9.77209 18.8991 9.15374 18.5177 8.77229Z" fill="white"/>
<path d="M18.5177 13.7823C18.1363 13.401 17.5181 13.401 17.1366 13.7823C16.7585 14.1605 16.2556 14.3688 15.7209 14.3688C15.186 14.3688 14.6832 14.1605 14.3051 13.7823C12.7628 12.2401 10.2536 12.2403 8.7113 13.7823C7.93064 14.5629 6.66042 14.5631 5.87976 13.7823C4.33748 12.2403 1.8283 12.2401 0.286011 13.7823C-0.0953369 14.1636 -0.0953369 14.782 0.286011 15.1635C0.667456 15.5447 1.28562 15.5447 1.66716 15.1635C2.04529 14.7852 2.54812 14.5769 3.08289 14.5769C3.61775 14.5769 4.12058 14.7852 4.49871 15.1635C6.04089 16.7056 8.55007 16.7054 10.0924 15.1635C10.873 14.3829 12.1432 14.3827 12.9239 15.1635C13.695 15.9345 14.708 16.3201 15.7209 16.3201C16.7337 16.3201 17.7466 15.9345 18.5177 15.1635C18.8991 14.7821 18.8991 14.1637 18.5177 13.7823Z" fill="white"/>
<path d="M49.714 8.77229C49.3326 8.39104 48.7144 8.39104 48.3329 8.77229C47.9548 9.15051 47.4519 9.35881 46.9172 9.35881C46.3823 9.35881 45.8795 9.15051 45.5013 8.77229C43.959 7.2301 41.4498 7.2303 39.9076 8.77229C39.127 9.55286 37.8568 9.55305 37.076 8.77229C35.5339 7.2303 33.0247 7.2301 31.4823 8.77229C31.101 9.15364 31.101 9.772 31.4823 10.1534C31.8636 10.5347 32.4819 10.5347 32.8634 10.1534C33.2415 9.77522 33.7443 9.56692 34.2791 9.56692C34.8139 9.56692 35.3168 9.77522 35.6949 10.1534C37.2373 11.6956 39.7465 11.6954 41.2886 10.1534C42.0692 9.37288 43.3394 9.37268 44.1202 10.1534C44.8913 10.9245 45.9043 11.3101 46.9172 11.3101C47.93 11.3101 48.9429 10.9245 49.714 10.1534C50.0954 9.77209 50.0954 9.15374 49.714 8.77229Z" fill="white"/>
<path d="M49.7141 13.7823C49.3325 13.401 48.7143 13.401 48.3329 13.7823C47.9548 14.1605 47.4519 14.3688 46.9172 14.3688C46.3823 14.3688 45.8795 14.1605 45.5013 13.7823C43.959 12.2401 41.4498 12.2403 39.9076 13.7823C39.127 14.5629 37.8568 14.5631 37.076 13.7823C35.5339 12.2403 33.0247 12.2401 31.4823 13.7823C31.101 14.1636 31.101 14.782 31.4823 15.1635C31.8637 15.5447 32.4819 15.5447 32.8635 15.1635C33.2416 14.7852 33.7444 14.5769 34.2792 14.5769C34.814 14.5769 35.3169 14.7852 35.695 15.1635C37.2374 16.7056 39.7466 16.7054 41.2887 15.1635C42.0693 14.3829 43.3395 14.3827 44.1203 15.1635C44.8914 15.9345 45.9044 16.3201 46.9173 16.3201C47.9301 16.3201 48.9429 15.9345 49.7141 15.1635C50.0955 14.7821 50.0955 14.1637 49.7141 13.7823Z" fill="white"/>
</g>
<defs>
<clipPath id="clip0_51_56">
<rect width="50" height="50" fill="white"/>
</clipPath>
</defs>
</svg>
